<svg width="8" height="8" viewBox="0 0 8 8" fill="none" xmlns="http://www.w3.org/2000/svg">
<path d="M4.88111 3.99974L7.8722 1.00852C7.95447 0.926179 7.99987 0.816325 8 0.699187C8 0.581984 7.9546 0.472 7.8722 0.389789L7.61008 0.12774C7.52767 0.0452033 7.41782 0 7.30055 0C7.18348 0 7.07363 0.0452033 6.99122 0.12774L4.00013 3.11876L1.00891 0.12774C0.926634 0.0452033 0.816715 0 0.699512 0C0.582439 0 0.47252 0.0452033 0.390244 0.12774L0.128 0.389789C-0.0426667 0.560455 -0.0426667 0.838049 0.128 1.00852L3.11915 3.99974L0.128 6.99083C0.0456585 7.0733 0.000325203 7.18315 0.000325203 7.30029C0.000325203 7.41743 0.0456585 7.52728 0.128 7.60969L0.390179 7.87174C0.472455 7.95421 0.582439 7.99948 0.699447 7.99948C0.81665 7.99948 0.926569 7.95421 1.00885 7.87174L4.00006 4.88065L6.99115 7.87174C7.07356 7.95421 7.18341 7.99948 7.30049 7.99948H7.30062C7.41776 7.99948 7.52761 7.95421 7.61002 7.87174L7.87213 7.60969C7.95441 7.52735 7.9998 7.41743 7.9998 7.30029C7.9998 7.18315 7.95441 7.0733 7.87213 6.99089L4.88111 3.99974Z" fill="black"/>
</svg>
