<svg width="20" height="6" viewBox="0 0 20 6" fill="none" xmlns="http://www.w3.org/2000/svg">
<path d="M9.8594 4.81592C10.9884 4.81592 11.9034 3.90057 11.9034 2.77188C11.9034 1.64288 10.9884 0.727839 9.8594 0.727839C8.73041 0.727839 7.81536 1.64288 7.81536 2.77188C7.81536 3.90057 8.73038 4.81592 9.8594 4.81592ZM16.9469 4.81592C18.0759 4.81592 18.991 3.90057 18.991 2.77188C18.991 1.64288 18.0759 0.727839 16.9469 0.727839C15.8179 0.727839 14.9029 1.64288 14.9029 2.77188C14.9029 3.90057 15.8179 4.81592 16.9469 4.81592ZM2.77188 4.81592C3.90091 4.81592 4.81592 3.90057 4.81592 2.77188C4.81592 1.64288 3.90088 0.727839 2.77188 0.727839C1.64319 0.727839 0.727839 1.64286 0.727839 2.77188C0.727839 3.9006 1.64316 4.81592 2.77188 4.81592Z" fill="#0041F2" stroke="#0041F2" stroke-width="0.544322"/>
</svg>
