<svg width="46" height="46" viewBox="0 0 46 46" fill="none" xmlns="http://www.w3.org/2000/svg">
<rect width="46" height="46" rx="12" fill="#EFF1F3"/>
<path d="M22.8594 24.8159C23.9884 24.8159 24.9034 23.9006 24.9034 22.7719C24.9034 21.6429 23.9884 20.7278 22.8594 20.7278C21.7304 20.7278 20.8154 21.6429 20.8154 22.7719C20.8154 23.9006 21.7304 24.8159 22.8594 24.8159ZM29.9469 24.8159C31.0759 24.8159 31.991 23.9006 31.991 22.7719C31.991 21.6429 31.0759 20.7278 29.9469 20.7278C28.8179 20.7278 27.9029 21.6429 27.9029 22.7719C27.9029 23.9006 28.8179 24.8159 29.9469 24.8159ZM15.7719 24.8159C16.9009 24.8159 17.8159 23.9006 17.8159 22.7719C17.8159 21.6429 16.9009 20.7278 15.7719 20.7278C14.6432 20.7278 13.7278 21.6429 13.7278 22.7719C13.7278 23.9006 14.6432 24.8159 15.7719 24.8159Z" fill="#0041F2" stroke="#0041F2" stroke-width="0.544322"/>
</svg>
