<svg width="18" height="14" viewBox="0 0 18 14" fill="none" xmlns="http://www.w3.org/2000/svg">
<path d="M8.99913 0.0805664C5.05423 0.0805664 1.45161 2.55789 0 6.24528C0 6.24528 1.88855 13.1997 8.99913 13.0481C16.5121 12.8881 18 6.24528 18 6.24528C16.5484 2.55789 12.9452 0.0805664 8.99913 0.0805664ZM9.06329 11.249C5.976 11.249 3.15639 9.38018 1.93994 6.56434C3.1561 3.7485 5.976 1.8797 9.06329 1.8797C12.1515 1.8797 14.9716 3.7485 16.1881 6.56434C14.9719 9.38018 12.1515 11.249 9.06329 11.249Z" fill="#C4C2CF"/>
<path d="M9.06115 3.07373C7.13631 3.07373 5.57031 4.63944 5.57031 6.56428C5.57031 8.48912 7.13631 10.0548 9.06115 10.0548C10.986 10.0548 12.5517 8.48912 12.5517 6.56428C12.5517 4.63944 10.986 3.07373 9.06115 3.07373ZM9.06115 8.2557C8.12835 8.2557 7.36944 7.4968 7.36944 6.56428C7.36944 5.63176 8.12835 4.87286 9.06115 4.87286C9.99396 4.87286 10.7526 5.63176 10.7526 6.56428C10.7526 7.4968 9.99396 8.2557 9.06115 8.2557Z" fill="#C4C2CF"/>
</svg>
