<svg width="36" height="36" viewBox="0 0 36 36" fill="none" xmlns="http://www.w3.org/2000/svg">
<path fill-rule="evenodd" clip-rule="evenodd" d="M6.92773 0H28.5423C30.3785 0.00353377 32.1386 0.734553 33.437 2.03299C34.7354 3.33143 35.4665 5.09147 35.47 6.92773V28.5423C35.4665 30.3785 34.7354 32.1386 33.437 33.437C32.1386 34.7354 30.3785 35.4665 28.5423 35.47H6.92773C5.09147 35.4665 3.33143 34.7354 2.03299 33.437C0.734553 32.1386 0.00353377 30.3785 0 28.5423L0 6.92773C0.00353377 5.09147 0.734553 3.33143 2.03299 2.03299C3.33143 0.734553 5.09147 0.00353377 6.92773 0V0ZM7.3434 26.8277C7.34349 27.1722 7.48038 27.5025 7.72396 27.7461C7.96754 27.9897 8.29788 28.1265 8.64235 28.1266H15.4407C15.6125 28.1284 15.7828 28.0961 15.942 28.0316C16.1011 27.9671 16.2459 27.8717 16.3679 27.7509C16.49 27.6301 16.5869 27.4863 16.653 27.3279C16.7191 27.1694 16.7532 26.9994 16.7532 26.8277C16.7532 26.6559 16.7191 26.4859 16.653 26.3274C16.5869 26.169 16.49 26.0252 16.3679 25.9044C16.2459 25.7836 16.1011 25.6882 15.942 25.6237C15.7828 25.5592 15.6125 25.5269 15.4407 25.5287H11.7784L16.614 20.6931C16.8576 20.4495 16.9945 20.1191 16.9946 19.7745C16.9946 19.43 16.8577 19.0995 16.6141 18.8559C16.4935 18.7352 16.3503 18.6395 16.1927 18.5742C16.0351 18.5089 15.8661 18.4753 15.6955 18.4753C15.351 18.4752 15.0205 18.6121 14.7769 18.8557L9.9413 23.692V20.0293C9.93777 19.6871 9.79936 19.3601 9.55614 19.1194C9.31292 18.8787 8.98455 18.7437 8.64235 18.7437C8.30015 18.7437 7.97178 18.8787 7.72856 19.1194C7.48534 19.3601 7.34693 19.6871 7.3434 20.0293V26.8277ZM28.1266 8.64242C28.1265 8.29793 27.9897 7.96757 27.7461 7.72398C27.5025 7.48038 27.1721 7.34349 26.8277 7.3434H20.0293C19.8575 7.34163 19.6872 7.37391 19.528 7.4384C19.3689 7.50288 19.2241 7.59828 19.1021 7.71907C18.98 7.83987 18.8831 7.98366 18.817 8.14214C18.7509 8.30062 18.7168 8.47063 18.7168 8.64235C18.7168 8.81407 18.7509 8.98408 18.817 9.14256C18.8831 9.30104 18.98 9.44483 19.1021 9.56563C19.2241 9.68642 19.3689 9.78182 19.528 9.8463C19.6872 9.91078 19.8575 9.94307 20.0293 9.9413H23.692L18.8557 14.7769C18.612 15.0205 18.4752 15.351 18.4752 15.6956C18.4752 16.0402 18.612 16.3706 18.8557 16.6143C19.0994 16.858 19.4298 16.9948 19.7744 16.9948C20.119 16.9948 20.4495 16.858 20.6931 16.6143L25.5287 11.778V15.4408C25.5322 15.783 25.6706 16.11 25.9139 16.3507C26.1571 16.5914 26.4855 16.7264 26.8277 16.7264C27.1698 16.7264 27.4982 16.5914 27.7414 16.3507C27.9847 16.11 28.1231 15.783 28.1266 15.4408V8.64242Z" fill="#D5D5DE"/>
</svg>
