<svg width="20" height="20" viewBox="0 0 20 20" fill="none" xmlns="http://www.w3.org/2000/svg">
<path d="M5.29083 9.16667H2.5C2.27899 9.16667 2.06702 9.25447 1.91074 9.41075C1.75446 9.56703 1.66667 9.77899 1.66667 10V12.5H0V10C0 9.33696 0.263392 8.70108 0.732233 8.23223C1.20107 7.76339 1.83696 7.5 2.5 7.5H6.28083C5.84486 7.98536 5.50849 8.55164 5.29083 9.16667ZM17.5 7.5H13.7192C14.1551 7.98536 14.4915 8.55164 14.7092 9.16667H17.5C17.721 9.16667 17.933 9.25447 18.0893 9.41075C18.2455 9.56703 18.3333 9.77899 18.3333 10V12.5H20V10C20 9.33696 19.7366 8.70108 19.2678 8.23223C18.7989 7.76339 18.163 7.5 17.5 7.5ZM13.3333 10.8333C13.3333 10.1741 13.1378 9.5296 12.7716 8.98143C12.4053 8.43327 11.8847 8.00603 11.2756 7.75374C10.6665 7.50144 9.9963 7.43543 9.3497 7.56405C8.7031 7.69267 8.10915 8.01014 7.64298 8.47631C7.1768 8.94249 6.85933 9.53643 6.73072 10.183C6.6021 10.8296 6.66811 11.4999 6.9204 12.1089C7.17269 12.718 7.59994 13.2386 8.1481 13.6049C8.69626 13.9712 9.34073 14.1667 10 14.1667C10.8841 14.1667 11.7319 13.8155 12.357 13.1904C12.9821 12.5652 13.3333 11.7174 13.3333 10.8333ZM11.6667 10.8333C11.6667 11.163 11.5689 11.4852 11.3858 11.7593C11.2026 12.0334 10.9423 12.247 10.6378 12.3731C10.3333 12.4993 9.99815 12.5323 9.67485 12.468C9.35155 12.4037 9.05458 12.2449 8.82149 12.0118C8.5884 11.7788 8.42967 11.4818 8.36536 11.1585C8.30105 10.8352 8.33405 10.5001 8.4602 10.1955C8.58635 9.89099 8.79997 9.63069 9.07405 9.44755C9.34813 9.26442 9.67036 9.16667 10 9.16667C10.442 9.16667 10.8659 9.34226 11.1785 9.65482C11.4911 9.96739 11.6667 10.3913 11.6667 10.8333ZM15 17.5C15 16.837 14.7366 16.2011 14.2678 15.7322C13.7989 15.2634 13.163 15 12.5 15H7.5C6.83696 15 6.20107 15.2634 5.73223 15.7322C5.26339 16.2011 5 16.837 5 17.5V20H6.66667V17.5C6.66667 17.279 6.75446 17.067 6.91074 16.9107C7.06702 16.7545 7.27899 16.6667 7.5 16.6667H12.5C12.721 16.6667 12.933 16.7545 13.0893 16.9107C13.2455 17.067 13.3333 17.279 13.3333 17.5V20H15V17.5ZM18.3333 3.33334C18.3333 2.67406 18.1378 2.0296 17.7716 1.48143C17.4053 0.93327 16.8847 0.506029 16.2756 0.253736C15.6665 0.00144427 14.9963 -0.0645668 14.3497 0.0640506C13.7031 0.192668 13.1092 0.510137 12.643 0.976312C12.1768 1.44249 11.8593 2.03643 11.7307 2.68303C11.6021 3.32964 11.6681 3.99986 11.9204 4.60895C12.1727 5.21803 12.5999 5.73863 13.1481 6.1049C13.6963 6.47117 14.3407 6.66667 15 6.66667C15.8841 6.66667 16.7319 6.31548 17.357 5.69036C17.9821 5.06524 18.3333 4.21739 18.3333 3.33334ZM16.6667 3.33334C16.6667 3.66297 16.5689 3.9852 16.3858 4.25929C16.2026 4.53337 15.9423 4.74699 15.6378 4.87313C15.3333 4.99928 14.9982 5.03229 14.6748 4.96798C14.3515 4.90367 14.0546 4.74493 13.8215 4.51185C13.5884 4.27876 13.4297 3.98179 13.3654 3.65849C13.301 3.33518 13.3341 3.00007 13.4602 2.69553C13.5863 2.39099 13.8 2.13069 14.074 1.94755C14.3481 1.76442 14.6704 1.66667 15 1.66667C15.442 1.66667 15.8659 1.84226 16.1785 2.15482C16.4911 2.46738 16.6667 2.89131 16.6667 3.33334ZM8.33333 3.33334C8.33333 2.67406 8.13784 2.0296 7.77156 1.48143C7.40529 0.93327 6.8847 0.506029 6.27561 0.253736C5.66652 0.00144427 4.9963 -0.0645668 4.3497 0.0640506C3.7031 0.192668 3.10915 0.510137 2.64298 0.976312C2.1768 1.44249 1.85933 2.03643 1.73072 2.68303C1.6021 3.32964 1.66811 3.99986 1.9204 4.60895C2.17269 5.21803 2.59994 5.73863 3.1481 6.1049C3.69626 6.47117 4.34073 6.66667 5 6.66667C5.88405 6.66667 6.7319 6.31548 7.35702 5.69036C7.98214 5.06524 8.33333 4.21739 8.33333 3.33334ZM6.66667 3.33334C6.66667 3.66297 6.56892 3.9852 6.38578 4.25929C6.20265 4.53337 5.94235 4.74699 5.63781 4.87313C5.33326 4.99928 4.99815 5.03229 4.67485 4.96798C4.35155 4.90367 4.05458 4.74493 3.82149 4.51185C3.5884 4.27876 3.42967 3.98179 3.36536 3.65849C3.30105 3.33518 3.33405 3.00007 3.4602 2.69553C3.58635 2.39099 3.79997 2.13069 4.07405 1.94755C4.34813 1.76442 4.67036 1.66667 5 1.66667C5.44203 1.66667 5.86595 1.84226 6.17851 2.15482C6.49107 2.46738 6.66667 2.89131 6.66667 3.33334Z" fill="white"/>
</svg>
