<svg width="19" height="19" viewBox="0 0 19 19" fill="none" xmlns="http://www.w3.org/2000/svg">
<path d="M1.68919 17.9701L1.68922 17.9701L5.11324 16.8675C6.43438 17.6156 7.92769 18.0092 9.45599 18.0092C14.3331 18.0092 18.2807 14.0623 18.2807 9.1845C18.2807 4.30739 14.3338 0.35982 9.45599 0.35982C4.57888 0.35982 0.631305 4.30672 0.631305 9.1845C0.631305 10.7128 1.02491 12.2061 1.77295 13.5273L0.670357 16.9513C0.670355 16.9513 0.670353 16.9513 0.67035 16.9513C0.577212 17.2404 0.65376 17.5573 0.868498 17.772C1.08117 17.9847 1.39727 18.0641 1.68919 17.9701ZM5.64219 15.2983L5.64216 15.2982C5.44279 15.1737 5.19519 15.1399 4.96475 15.2141L4.96473 15.2141L2.69561 15.9449L3.42637 13.6758L3.42638 13.6757C3.49945 13.4486 3.4686 13.2007 3.34212 12.9983L3.3421 12.9983C2.62813 11.8563 2.25061 10.5376 2.25061 9.1845C2.25061 5.2116 5.48309 1.97913 9.45599 1.97913C13.4289 1.97913 16.6614 5.2116 16.6614 9.1845C16.6614 13.1574 13.4289 16.3899 9.45599 16.3899C8.10287 16.3899 6.78416 16.0124 5.64219 15.2983ZM9.45599 10.164C9.99699 10.164 10.4354 9.72535 10.4354 9.1845C10.4354 8.64351 9.99698 8.20504 9.45599 8.20504C8.91499 8.20504 8.47652 8.64351 8.47652 9.1845C8.47652 9.72535 8.91498 10.164 9.45599 10.164ZM12.8522 10.164C13.3932 10.164 13.8316 9.72535 13.8316 9.1845C13.8316 8.64351 13.3932 8.20504 12.8522 8.20504C12.3112 8.20504 11.8727 8.64351 11.8727 9.1845C11.8727 9.72535 12.3112 10.164 12.8522 10.164ZM6.05979 10.164C6.60079 10.164 7.03925 9.72535 7.03925 9.1845C7.03925 8.64351 6.60078 8.20504 6.05979 8.20504C5.51894 8.20504 5.08032 8.6435 5.08032 9.1845C5.08032 9.72536 5.51893 10.164 6.05979 10.164Z" fill="white" stroke="white" stroke-width="0.260828"/>
</svg>
