<svg width="17" height="18" viewBox="0 0 17 18" fill="none" xmlns="http://www.w3.org/2000/svg">
<path d="M16.875 8.57617C16.8756 10.5704 16.1665 12.4999 14.8746 14.0191L15.4792 14.6238L14.4844 15.618L13.8797 15.0133C12.3601 16.3046 10.4309 17.0137 8.43675 17.0137C6.44259 17.0137 4.51341 16.3046 2.99391 15.0133L2.38918 15.618L1.39567 14.623L2.00035 14.0184C0.709003 12.4989 0 10.5696 0 8.57542C0 6.58136 0.709003 4.65208 2.00035 3.13258L1.39567 2.52786L2.39059 1.53434L2.99531 2.13902C4.51481 0.847684 6.444 0.138672 8.43816 0.138672C10.4323 0.138672 12.3615 0.847684 13.8811 2.13902L14.4858 1.53434L15.4792 2.52927L14.8746 3.13398C16.1663 4.65302 16.8755 6.58211 16.875 8.57617ZM15.4688 8.57617C15.4701 6.95439 14.9078 5.38258 13.8783 4.12961L11.3674 6.64042C11.7493 7.2138 11.953 7.8873 11.953 8.57617C11.953 9.26505 11.7493 9.93855 11.3674 10.5119L13.8783 13.0227C14.9078 11.7698 15.4701 10.198 15.4688 8.57617ZM6.32812 8.57617C6.32812 8.99336 6.45178 9.40117 6.68363 9.74805C6.91537 10.095 7.24481 10.3653 7.63022 10.525C8.01572 10.6846 8.43984 10.7264 8.84897 10.645C9.25819 10.5637 9.63403 10.3628 9.92906 10.0677C10.224 9.7727 10.4249 9.39686 10.5063 8.98773C10.5877 8.57852 10.5459 8.15439 10.3863 7.76898C10.2266 7.38348 9.95625 7.05405 9.60938 6.8223C9.2625 6.59045 8.85469 6.4668 8.4375 6.4668C7.878 6.4668 7.34147 6.68898 6.94594 7.08461C6.55031 7.48023 6.32812 8.01677 6.32812 8.57617ZM8.4375 15.6074C10.0592 15.6087 11.631 15.0465 12.8841 14.017L10.3732 11.5061C9.79987 11.888 9.12638 12.0918 8.4375 12.0918C7.74862 12.0918 7.07512 11.888 6.50175 11.5061L3.99094 14.017C5.24391 15.0465 6.81572 15.6087 8.4375 15.6074ZM1.40621 8.57617C1.40492 10.198 1.96713 11.7698 2.99672 13.0227L5.50753 10.5119C5.12569 9.93855 4.92188 9.26505 4.92188 8.57617C4.92188 7.8873 5.12569 7.2138 5.50753 6.64042L2.99672 4.12961C1.96713 5.38258 1.40492 6.95439 1.40621 8.57617ZM8.4375 1.54488C6.81572 1.54359 5.24391 2.10581 3.99094 3.13539L6.50175 5.6462C7.07512 5.26436 7.74862 5.06055 8.4375 5.06055C9.12638 5.06055 9.79987 5.26436 10.3732 5.6462L12.8841 3.13539C11.631 2.10581 10.0592 1.54359 8.4375 1.54488Z" fill="#0041F2"/>
</svg>
