<svg width="13" height="17" viewBox="0 0 13 17" fill="none" xmlns="http://www.w3.org/2000/svg">
<path d="M6.5 1.625C9.18856 1.625 11.375 3.87806 11.375 6.64788C11.375 10.5316 7.70494 14.0449 6.50487 14.5844C5.32756 14.0335 1.625 10.4292 1.625 6.64788C1.625 3.87806 3.81144 1.625 6.5 1.625ZM6.5 0C2.90956 0 0 2.97619 0 6.64788C0 11.6114 5.031 16.25 6.5 16.25C7.96819 16.25 13 11.7032 13 6.64788C13 2.97619 10.0896 0 6.5 0Z" fill="#0041F2"/>
<path d="M6.5 4.875C7.39619 4.875 8.125 5.60381 8.125 6.5C8.125 7.39619 7.39619 8.125 6.5 8.125C5.60381 8.125 4.875 7.39619 4.875 6.5C4.875 5.60381 5.60381 4.875 6.5 4.875ZM6.5 3.25C4.70519 3.25 3.25 4.70519 3.25 6.5C3.25 8.29481 4.70519 9.75 6.5 9.75C8.29481 9.75 9.75 8.29481 9.75 6.5C9.75 4.70519 8.29481 3.25 6.5 3.25Z" fill="#0041F2"/>
</svg>
