<svg width="18" height="18" viewBox="0 0 18 18" fill="none" xmlns="http://www.w3.org/2000/svg">
<g clip-path="url(#clip0_113_3851)">
<path d="M14.25 0H3.75C2.7558 0.00119089 1.80267 0.396661 1.09966 1.09966C0.396661 1.80267 0.00119089 2.7558 0 3.75L0 14.25C0.00119089 15.2442 0.396661 16.1973 1.09966 16.9003C1.80267 17.6033 2.7558 17.9988 3.75 18H14.25C15.2442 17.9988 16.1973 17.6033 16.9003 16.9003C17.6033 16.1973 17.9988 15.2442 18 14.25V3.75C17.9988 2.7558 17.6033 1.80267 16.9003 1.09966C16.1973 0.396661 15.2442 0.00119089 14.25 0V0ZM5.25 16.5V15.75C5.25 14.7554 5.64509 13.8016 6.34835 13.0983C7.05161 12.3951 8.00544 12 9 12C9.99456 12 10.9484 12.3951 11.6517 13.0983C12.3549 13.8016 12.75 14.7554 12.75 15.75V16.5H5.25ZM16.5 14.25C16.5 14.8467 16.2629 15.419 15.841 15.841C15.419 16.2629 14.8467 16.5 14.25 16.5V15.75C14.25 14.3576 13.6969 13.0223 12.7123 12.0377C11.7277 11.0531 10.3924 10.5 9 10.5C7.60761 10.5 6.27226 11.0531 5.28769 12.0377C4.30312 13.0223 3.75 14.3576 3.75 15.75V16.5C3.15326 16.5 2.58097 16.2629 2.15901 15.841C1.73705 15.419 1.5 14.8467 1.5 14.25V3.75C1.5 3.15326 1.73705 2.58097 2.15901 2.15901C2.58097 1.73705 3.15326 1.5 3.75 1.5H14.25C14.8467 1.5 15.419 1.73705 15.841 2.15901C16.2629 2.58097 16.5 3.15326 16.5 3.75V14.25Z" fill="white"/>
<path d="M9 3C8.40666 3 7.82664 3.17595 7.33329 3.50559C6.83994 3.83524 6.45543 4.30377 6.22836 4.85195C6.0013 5.40013 5.94189 6.00333 6.05765 6.58527C6.1734 7.16721 6.45912 7.70176 6.87868 8.12132C7.29824 8.54088 7.83279 8.8266 8.41473 8.94236C8.99667 9.05811 9.59987 8.9987 10.1481 8.77164C10.6962 8.54458 11.1648 8.16006 11.4944 7.66671C11.8241 7.17336 12 6.59334 12 6C12 5.20435 11.6839 4.44129 11.1213 3.87868C10.5587 3.31607 9.79565 3 9 3ZM9 7.5C8.70333 7.5 8.41332 7.41203 8.16665 7.2472C7.91997 7.08238 7.72771 6.84811 7.61418 6.57403C7.50065 6.29994 7.47095 5.99834 7.52882 5.70736C7.5867 5.41639 7.72956 5.14912 7.93934 4.93934C8.14912 4.72956 8.41639 4.5867 8.70737 4.52882C8.99834 4.47094 9.29994 4.50065 9.57403 4.61418C9.84812 4.72771 10.0824 4.91997 10.2472 5.16665C10.412 5.41332 10.5 5.70333 10.5 6C10.5 6.39783 10.342 6.77936 10.0607 7.06066C9.77936 7.34196 9.39783 7.5 9 7.5Z" fill="white"/>
</g>
<defs>
<clipPath id="clip0_113_3851">
<rect width="18" height="18" fill="white"/>
</clipPath>
</defs>
</svg>
