<svg width="16" height="18" viewBox="0 0 16 18" fill="none" xmlns="http://www.w3.org/2000/svg">
<path d="M7.99908 5.92773C7.41283 5.92773 6.83981 6.10152 6.35235 6.42724C5.86499 6.75287 5.48513 7.21583 5.26076 7.75743C5.0365 8.29893 4.97771 8.89486 5.09212 9.46985C5.20652 10.0447 5.48878 10.5729 5.90323 10.9874C6.31778 11.4019 6.84584 11.6842 7.42083 11.7986C7.99572 11.9129 8.59165 11.8542 9.13335 11.6298C9.67485 11.4056 10.1378 11.0257 10.4634 10.5382C10.7892 10.0509 10.9629 9.47775 10.9629 8.8916C10.9629 8.10548 10.6507 7.35167 10.0948 6.79585C9.539 6.24003 8.7851 5.92773 7.99908 5.92773ZM7.99908 10.3735C7.70595 10.3735 7.41944 10.2866 7.17572 10.1238C6.93199 9.96096 6.7421 9.72949 6.62987 9.45869C6.51774 9.18789 6.48839 8.88992 6.5456 8.60253C6.6028 8.31503 6.74388 8.05095 6.95115 7.84368C7.15843 7.6365 7.42251 7.49532 7.7099 7.43812C7.9974 7.38092 8.29537 7.41036 8.56616 7.52249C8.83696 7.63462 9.06844 7.82461 9.23126 8.06824C9.39407 8.31197 9.48101 8.59847 9.48101 8.8916C9.48101 9.28461 9.32491 9.66161 9.047 9.93952C8.76899 10.2174 8.39209 10.3735 7.99908 10.3735Z" fill="#0041F2"/>
<path d="M14.8865 10.2994L14.5575 10.1097C14.7057 9.30387 14.7057 8.47785 14.5575 7.67197L14.8865 7.48228C15.1395 7.33636 15.3613 7.14193 15.5392 6.91026C15.7171 6.67868 15.8476 6.4142 15.9233 6.13214C15.999 5.84998 16.0183 5.55577 15.9803 5.2662C15.9422 4.97653 15.8476 4.69733 15.7016 4.44432C15.5557 4.1913 15.3613 3.96951 15.1297 3.79168C14.898 3.61374 14.6335 3.48333 14.3514 3.40766C14.0694 3.33188 13.7751 3.31252 13.4855 3.35055C13.1959 3.38859 12.9166 3.48333 12.6636 3.62926L12.3339 3.81973C11.7111 3.28762 10.9955 2.87514 10.2229 2.60302V2.2229C10.2229 1.63335 9.98873 1.06795 9.57181 0.651073C9.15499 0.234195 8.58949 0 7.99997 0C7.41046 0 6.84505 0.234195 6.42813 0.651073C6.01132 1.06795 5.77707 1.63335 5.77707 2.2229V2.60302C5.00449 2.87611 4.28911 3.2896 3.6668 3.8227L3.33564 3.63074C2.82467 3.33593 2.21757 3.2562 1.64781 3.40904C1.07808 3.56198 0.59241 3.93483 0.297634 4.4458C0.00285721 4.95677 -0.0768811 5.56387 0.0759753 6.13362C0.228832 6.70328 0.601756 7.18896 1.1127 7.48376L1.44169 7.67345C1.29357 8.47933 1.29357 9.30536 1.44169 10.1112L1.1127 10.3009C0.601756 10.5957 0.228832 11.0814 0.0759753 11.6511C-0.0768811 12.2208 0.00285721 12.8279 0.297634 13.3389C0.59241 13.8499 1.07808 14.2227 1.64781 14.3755C2.21757 14.5285 2.82467 14.4488 3.33564 14.1539L3.66532 13.9635C4.28832 14.4957 5.00419 14.9082 5.77707 15.1801V15.5603C5.77707 16.1498 6.01132 16.7152 6.42813 17.1321C6.84505 17.549 7.41046 17.7832 7.99997 17.7832C8.58949 17.7832 9.15499 17.549 9.57181 17.1321C9.98873 16.7152 10.2229 16.1498 10.2229 15.5603V15.1801C10.9955 14.9071 11.7109 14.4936 12.3331 13.9605L12.6644 14.1517C13.1754 14.4465 13.7825 14.5262 14.3522 14.3734C14.9219 14.2205 15.4076 13.8476 15.7024 13.3366C15.9972 12.8257 16.0769 12.2186 15.924 11.6489C15.7711 11.0791 15.3983 10.5935 14.8873 10.2986L14.8865 10.2994ZM12.9985 7.50155C13.2495 8.41076 13.2495 9.37096 12.9985 10.2802C12.9548 10.4384 12.9647 10.6067 13.027 10.7587C13.0892 10.9107 13.2002 11.0376 13.3423 11.1196L14.1456 11.5835C14.3159 11.6818 14.4402 11.8437 14.491 12.0336C14.542 12.2235 14.5154 12.4258 14.4171 12.596C14.3189 12.7664 14.157 12.8906 13.9671 12.9415C13.7772 12.9925 13.5749 12.9659 13.4046 12.8676L12.5999 12.4023C12.4576 12.3198 12.2918 12.2871 12.1288 12.3092C11.9658 12.3314 11.8149 12.4071 11.6997 12.5245C11.0401 13.1978 10.2092 13.6782 9.29666 13.9139C9.13741 13.9548 8.99633 14.0476 8.89546 14.1776C8.79478 14.3076 8.74015 14.4674 8.74025 14.6318V15.5603C8.74025 15.7568 8.6621 15.9453 8.52319 16.0842C8.38419 16.2232 8.19578 16.3013 7.99928 16.3013C7.80268 16.3013 7.61427 16.2232 7.47527 16.0842C7.33636 15.9453 7.25831 15.7568 7.25831 15.5603V14.6326C7.25831 14.4681 7.20368 14.3084 7.10301 14.1783C7.00224 14.0483 6.86106 13.9556 6.7018 13.9146C5.78922 13.678 4.95855 13.1966 4.29958 12.5223C4.18439 12.4049 4.03343 12.3292 3.87042 12.3071C3.7074 12.2849 3.54163 12.3176 3.39936 12.4L2.59615 12.8647C2.51178 12.9141 2.41852 12.9464 2.3217 12.9596C2.22488 12.9728 2.12648 12.9668 2.03193 12.9418C1.9375 12.9168 1.84891 12.8734 1.77128 12.8141C1.69365 12.7547 1.62854 12.6806 1.57968 12.5959C1.53082 12.5113 1.49919 12.4178 1.48659 12.321C1.47399 12.2241 1.48069 12.1256 1.50629 12.0313C1.5319 11.937 1.5759 11.8487 1.63577 11.7715C1.69564 11.6942 1.77019 11.6296 1.85515 11.5813L2.65839 11.1175C2.80056 11.0354 2.91151 10.9084 2.97375 10.7565C3.03599 10.6045 3.04597 10.4362 3.0022 10.2779C2.75126 9.36878 2.75126 8.40859 3.0022 7.49937C3.04518 7.3414 3.03471 7.17374 2.97237 7.02239C2.91003 6.87103 2.79937 6.74458 2.6576 6.66277L1.8544 6.19893C1.68412 6.10063 1.55985 5.9388 1.50892 5.74891C1.45799 5.55903 1.48458 5.3567 1.58284 5.18637C1.6811 5.01615 1.84297 4.89186 2.03282 4.84088C2.2227 4.79 2.42504 4.81658 2.59536 4.91488L3.40005 5.38021C3.54202 5.4628 3.7074 5.4959 3.87022 5.47426C4.03303 5.45272 4.18409 5.37764 4.29958 5.26086C4.95914 4.58757 5.79001 4.10723 6.70259 3.8716C6.86234 3.8305 7.00382 3.73724 7.10459 3.60663C7.20546 3.47602 7.2598 3.31558 7.25901 3.15059V2.2229C7.25901 2.02639 7.33705 1.83791 7.47606 1.69896C7.61497 1.56 7.80347 1.48193 7.99997 1.48193C8.19648 1.48193 8.38498 1.56 8.52388 1.69896C8.66289 1.83791 8.74094 2.02639 8.74094 2.2229V3.15059C8.74084 3.31509 8.79547 3.47484 8.89625 3.60485C8.99702 3.73487 9.1382 3.82764 9.29745 3.86864C10.2103 4.10505 11.0412 4.58648 11.7004 5.26086C11.8157 5.37823 11.9666 5.45401 12.1296 5.47614C12.2926 5.49827 12.4583 5.46557 12.6007 5.38317L13.4039 4.91854C13.4882 4.86914 13.5814 4.83683 13.6782 4.82359C13.7751 4.81036 13.8736 4.81638 13.968 4.84138C14.0625 4.86637 14.1511 4.90974 14.2287 4.96912C14.3064 5.0285 14.3715 5.10259 14.4203 5.18726C14.4692 5.27193 14.5008 5.36539 14.5134 5.46221C14.526 5.55913 14.5193 5.65763 14.4937 5.75188C14.4681 5.84623 14.4241 5.93455 14.3642 6.01171C14.3043 6.08897 14.2298 6.15358 14.1449 6.20189L13.3416 6.66574C13.2002 6.74774 13.0898 6.87429 13.0277 7.02565C12.9656 7.17691 12.9555 7.34377 12.9985 7.50155Z" fill="#0041F2"/>
</svg>
