<svg width="16" height="18" viewBox="0 0 16 18" fill="none" xmlns="http://www.w3.org/2000/svg">
<path d="M12.4994 11.2499C12.0276 11.251 11.5627 11.3637 11.1427 11.5787C10.7227 11.7938 10.3596 12.1052 10.0829 12.4874L6.32167 9.98014C6.5587 9.34813 6.5587 8.65165 6.32167 8.01964L10.0829 5.51239C10.5051 6.08474 11.1175 6.48778 11.8102 6.64911C12.5029 6.81044 13.2304 6.71947 13.862 6.39256C14.4936 6.06564 14.9879 5.52421 15.2562 4.86553C15.5244 4.20685 15.549 3.47411 15.3255 2.79894C15.1019 2.12377 14.645 1.55044 14.0367 1.18196C13.4284 0.813473 12.7086 0.673984 12.0067 0.788554C11.3048 0.903123 10.6667 1.26424 10.2072 1.80703C9.7476 2.34982 9.49666 3.03869 9.49942 3.74989C9.50429 3.85917 9.51531 3.9681 9.53242 4.07614L5.48917 6.77164C5.05829 6.38321 4.52402 6.12804 3.95108 6.03703C3.37814 5.94603 2.79111 6.02309 2.26107 6.25889C1.73103 6.4947 1.28073 6.87912 0.964698 7.3656C0.648669 7.85209 0.480469 8.41977 0.480469 8.99989C0.480469 9.58001 0.648669 10.1477 0.964698 10.6342C1.28073 11.1207 1.73103 11.5051 2.26107 11.7409C2.79111 11.9767 3.37814 12.0538 3.95108 11.9627C4.52402 11.8717 5.05829 11.6166 5.48917 11.2281L9.53242 13.9236C9.51531 14.0317 9.50429 14.1406 9.49942 14.2499C9.49942 14.8432 9.67537 15.4233 10.005 15.9166C10.3347 16.4099 10.8032 16.7945 11.3514 17.0215C11.8996 17.2486 12.5028 17.308 13.0847 17.1922C13.6666 17.0765 14.2012 16.7908 14.6207 16.3712C15.0403 15.9517 15.326 15.4171 15.4418 14.8352C15.5575 14.2532 15.4981 13.65 15.2711 13.1018C15.044 12.5537 14.6595 12.0851 14.1661 11.7555C13.6728 11.4258 13.0928 11.2499 12.4994 11.2499ZM12.4994 2.24989C12.7961 2.24989 13.0861 2.33786 13.3328 2.50269C13.5795 2.66751 13.7717 2.90178 13.8852 3.17587C13.9988 3.44995 14.0285 3.75155 13.9706 4.04253C13.9127 4.3335 13.7699 4.60077 13.5601 4.81055C13.3503 5.02033 13.083 5.16319 12.7921 5.22107C12.5011 5.27895 12.1995 5.24924 11.9254 5.13571C11.6513 5.02218 11.417 4.82992 11.2522 4.58325C11.0874 4.33657 10.9994 4.04656 10.9994 3.74989C10.9994 3.35207 11.1575 2.97053 11.4388 2.68923C11.7201 2.40793 12.1016 2.24989 12.4994 2.24989ZM3.49942 10.4999C3.20275 10.4999 2.91274 10.4119 2.66607 10.2471C2.4194 10.0823 2.22714 9.84801 2.11361 9.57392C2.00007 9.29983 1.97037 8.99823 2.02825 8.70726C2.08612 8.41628 2.22899 8.14901 2.43876 7.93923C2.64854 7.72945 2.91582 7.58659 3.20679 7.52871C3.49776 7.47084 3.79936 7.50054 4.07345 7.61407C4.34754 7.7276 4.58181 7.91986 4.74663 8.16654C4.91145 8.41321 4.99942 8.70322 4.99942 8.99989C4.99942 9.39772 4.84139 9.77925 4.56009 10.0606C4.27878 10.3419 3.89725 10.4999 3.49942 10.4999ZM12.4994 15.7499C12.2028 15.7499 11.9127 15.6619 11.6661 15.4971C11.4194 15.3323 11.2271 15.098 11.1136 14.8239C11.0001 14.5498 10.9704 14.2482 11.0282 13.9573C11.0861 13.6663 11.229 13.399 11.4388 13.1892C11.6485 12.9795 11.9158 12.8366 12.2068 12.7787C12.4978 12.7208 12.7994 12.7505 13.0735 12.8641C13.3475 12.9776 13.5818 13.1699 13.7466 13.4165C13.9115 13.6632 13.9994 13.9532 13.9994 14.2499C13.9994 14.6477 13.8414 15.0292 13.5601 15.3106C13.2788 15.5919 12.8972 15.7499 12.4994 15.7499Z" fill="#0041F2"/>
</svg>
