<svg width="17" height="17" viewBox="0 0 17 17" fill="none" xmlns="http://www.w3.org/2000/svg">
<path d="M1.50983 12.0871L0.545059 15.0831C0.545057 15.0831 0.545055 15.0831 0.545053 15.0831C0.463557 15.336 0.530536 15.6133 0.718432 15.8012C0.904518 15.9873 1.18111 16.0568 1.43654 15.9746L1.43656 15.9746L4.43258 15.0098C5.58858 15.6644 6.89523 16.0088 8.23248 16.0088C12.5 16.0088 15.9541 12.5552 15.9541 8.28717C15.9541 4.0197 12.5005 0.565575 8.23248 0.565575C3.96501 0.565575 0.510888 4.01911 0.510888 8.28717C0.510888 9.62443 0.855295 10.9311 1.50983 12.0871ZM4.89541 13.6367L4.89538 13.6367C4.72094 13.5277 4.50428 13.4982 4.30265 13.5631L4.30264 13.5631L2.31715 14.2025L2.95657 12.217L2.95658 12.217C3.02051 12.0183 2.99352 11.8013 2.88285 11.6243L2.88284 11.6243C2.25811 10.625 1.92778 9.47114 1.92778 8.28717C1.92778 4.81088 4.7562 1.98247 8.23248 1.98247C11.7088 1.98247 14.5372 4.81088 14.5372 8.28717C14.5372 11.7635 11.7088 14.5919 8.23248 14.5919C7.04851 14.5919 5.89464 14.2615 4.89541 13.6367ZM8.23248 9.1442C8.70586 9.1442 9.08951 8.76041 9.08951 8.28717C9.08951 7.8138 8.70585 7.43014 8.23248 7.43014C7.75911 7.43014 7.37545 7.8138 7.37545 8.28717C7.37545 8.76041 7.7591 9.1442 8.23248 9.1442ZM11.2042 9.1442C11.6775 9.1442 12.0612 8.76041 12.0612 8.28717C12.0612 7.8138 11.6775 7.43014 11.2042 7.43014C10.7308 7.43014 10.3471 7.8138 10.3471 8.28717C10.3471 8.76041 10.7308 9.1442 11.2042 9.1442ZM5.26081 9.1442C5.73419 9.1442 6.11784 8.76041 6.11784 8.28717C6.11784 7.8138 5.73418 7.43014 5.26081 7.43014C4.78757 7.43014 4.40378 7.81379 4.40378 8.28717C4.40378 8.76042 4.78756 9.1442 5.26081 9.1442Z" fill="white" stroke="white" stroke-width="0.228225"/>
</svg>
