<svg width="14" height="14" viewBox="0 0 14 14" fill="none" xmlns="http://www.w3.org/2000/svg">
<path d="M13.9634 5.0966C13.8712 4.81311 13.6198 4.61241 13.3235 4.5856L9.28208 4.2187L7.6849 0.479378C7.56698 0.204654 7.29867 0.0273438 7.00002 0.0273438C6.70137 0.0273438 6.43295 0.204654 6.31577 0.479378L4.71859 4.2187L0.676564 4.5856C0.380264 4.61295 0.129359 4.81365 0.0366454 5.0966C-0.0555344 5.38008 0.0295957 5.69101 0.25369 5.88755L3.30866 8.56632L2.4079 12.5336C2.342 12.8253 2.45522 13.1269 2.69726 13.3019C2.82736 13.3964 2.98021 13.4436 3.13359 13.4436C3.2654 13.4436 3.39731 13.4086 3.51513 13.3381L7.00002 11.2544L10.4843 13.3381C10.7399 13.4908 11.0613 13.4768 11.3028 13.3019C11.5448 13.1269 11.658 12.8253 11.5921 12.5336L10.6914 8.56632L13.7463 5.88755C13.9703 5.69101 14.0556 5.38072 13.9634 5.0966Z" fill="#0041F2"/>
</svg>
