<svg width="18" height="19" viewBox="0 0 18 19" fill="none" xmlns="http://www.w3.org/2000/svg">
<path d="M11.6859 4.32881V3.42959C11.6859 2.92443 11.2918 2.53736 10.7867 2.53736H4.2516L4.131 2.48566L4.10884 2.53736V2.59361H4.24006L6.80655 3.69379C8.13261 4.26209 8.99517 5.56986 8.99517 7.01257V13.2248V13.281H9.05142H10.7867C11.292 13.281 11.6859 12.8941 11.6859 12.3888V11.4965C11.684 11.0019 12.0834 10.5992 12.5781 10.5973M11.6859 4.32881C11.6877 4.82111 12.0858 5.21936 12.5781 5.22104C13.073 5.22301 13.4774 4.82367 13.4791 4.32881M11.6859 4.32881L11.7421 4.32861M11.6859 4.32881H11.7421V4.32861M13.4791 4.32881V3.42962C13.4791 1.95629 12.26 0.744176 10.7866 0.744141H2.72674M13.4791 4.32881H13.4229V4.32862M13.4791 4.32881L13.4229 4.32862M2.72674 0.744141C1.03477 0.750328 0.0350357 2.1312 0.0430162 3.43662V12.1771C0.0430162 13.7296 0.841661 15.1769 2.15812 15.9997L6.10497 18.4718M2.72674 0.744141L2.72694 0.80039C2.72691 0.80039 2.72688 0.800391 2.72684 0.800391M2.72674 0.744141V0.800391H2.72684M6.10497 18.4718C7.32331 19.2332 8.99513 18.3025 8.99513 16.8657V15.1288V15.0725H9.05138H10.7866C12.2601 15.0725 13.4791 13.8623 13.4791 12.3888V11.4966C13.481 11.0019 13.0816 10.5993 12.5869 10.5973M6.10497 18.4718L6.13479 18.4241M6.10497 18.4718L6.13483 18.4241L6.13479 18.4241M12.5869 10.5973H12.5781M12.5869 10.5973V10.6536H12.5869H12.5868H12.5868H12.5868H12.5868H12.5868H12.5868H12.5867H12.5867H12.5867H12.5867H12.5867H12.5866M12.5869 10.5973L12.5866 10.6536M12.5781 10.5973L12.5783 10.6536M12.5781 10.5973V10.6536H12.5781H12.5782H12.5782H12.5782H12.5782H12.5782H12.5782H12.5783H12.5783H12.5783H12.5783H12.5783M12.5783 10.6536H12.5784H12.5784H12.5784H12.5784H12.5784H12.5784H12.5785H12.5785H12.5785H12.5785H12.5785H12.5785H12.5786H12.5786H12.5786H12.5786H12.5786H12.5786H12.5787H12.5787H12.5787H12.5787H12.5787H12.5788H12.5788H12.5788H12.5788H12.5788H12.5788H12.5789H12.5789H12.5789H12.5789H12.5789H12.5789H12.579H12.579H12.579H12.579H12.579H12.579H12.5791H12.5791H12.5791H12.5791H12.5791H12.5791H12.5792H12.5792H12.5792H12.5792H12.5792H12.5792H12.5793H12.5793H12.5793H12.5793H12.5793H12.5793H12.5794H12.5794H12.5794H12.5794H12.5794H12.5795H12.5795H12.5795H12.5795H12.5795H12.5795H12.5796H12.5796H12.5796H12.5796H12.5796H12.5796H12.5797H12.5797H12.5797H12.5797H12.5797H12.5797H12.5798H12.5798H12.5798H12.5798H12.5798H12.5798H12.5799H12.5799H12.5799H12.5799H12.5799H12.5799H12.58H12.58H12.58H12.58H12.58H12.5801H12.5801H12.5801H12.5801H12.5801H12.5801H12.5802H12.5802H12.5802H12.5802H12.5802H12.5802H12.5803H12.5803H12.5803H12.5803H12.5803H12.5803H12.5804H12.5804H12.5804H12.5804H12.5804H12.5804H12.5805H12.5805H12.5805H12.5805H12.5805H12.5805H12.5806H12.5806H12.5806H12.5806H12.5806H12.5806H12.5807H12.5807H12.5807H12.5807H12.5807H12.5808H12.5808H12.5808H12.5808H12.5808H12.5808H12.5809H12.5809H12.5809H12.5809H12.5809H12.5809H12.581H12.581H12.581H12.581H12.581H12.581H12.5811H12.5811H12.5811H12.5811H12.5811H12.5811H12.5812H12.5812H12.5812H12.5812H12.5812H12.5812H12.5813H12.5813H12.5813H12.5813H12.5813H12.5813H12.5814H12.5814H12.5814H12.5814H12.5814H12.5815H12.5815H12.5815H12.5815H12.5815H12.5815H12.5816H12.5816H12.5816H12.5816H12.5816H12.5816H12.5817H12.5817H12.5817H12.5817H12.5817H12.5817H12.5818H12.5818H12.5818H12.5818H12.5818H12.5818H12.5819H12.5819H12.5819H12.5819H12.5819H12.5819H12.582H12.582H12.582H12.582H12.582H12.5821H12.5821H12.5821H12.5821H12.5821H12.5821H12.5822H12.5822H12.5822H12.5822H12.5822H12.5822H12.5823H12.5823H12.5823H12.5823H12.5823H12.5823H12.5824H12.5824H12.5824H12.5824H12.5824H12.5824H12.5825H12.5825H12.5825H12.5825H12.5825H12.5825H12.5826H12.5826H12.5826H12.5826H12.5826H12.5826H12.5827H12.5827H12.5827H12.5827H12.5827H12.5828H12.5828H12.5828H12.5828H12.5828H12.5828H12.5829H12.5829H12.5829H12.5829H12.5829H12.5829H12.583H12.583H12.583H12.583H12.583H12.583H12.5831H12.5831H12.5831H12.5831H12.5831H12.5831H12.5832H12.5832H12.5832H12.5832H12.5832H12.5832H12.5833H12.5833H12.5833H12.5833H12.5833H12.5834H12.5834H12.5834H12.5834H12.5834H12.5834H12.5835H12.5835H12.5835H12.5835H12.5835H12.5835H12.5836H12.5836H12.5836H12.5836H12.5836H12.5836H12.5837H12.5837H12.5837H12.5837H12.5837H12.5837H12.5838H12.5838H12.5838H12.5838H12.5838H12.5838H12.5839H12.5839H12.5839H12.5839H12.5839H12.5839H12.584H12.584H12.584H12.584H12.584H12.5841H12.5841H12.5841H12.5841H12.5841H12.5841H12.5842H12.5842H12.5842H12.5842H12.5842H12.5842H12.5843H12.5843H12.5843H12.5843H12.5843H12.5843H12.5844H12.5844H12.5844H12.5844H12.5844H12.5844H12.5845H12.5845H12.5845H12.5845H12.5845H12.5845H12.5846H12.5846H12.5846H12.5846H12.5846H12.5846H12.5847H12.5847H12.5847H12.5847H12.5847H12.5848H12.5848H12.5848H12.5848H12.5848H12.5848H12.5849H12.5849H12.5849H12.5849H12.5849H12.5849H12.585H12.585H12.585H12.585H12.585H12.585H12.5851H12.5851H12.5851H12.5851H12.5851H12.5851H12.5852H12.5852H12.5852H12.5852H12.5852H12.5852H12.5853H12.5853H12.5853H12.5853H12.5853H12.5854H12.5854H12.5854H12.5854H12.5854H12.5854H12.5855H12.5855H12.5855H12.5855H12.5855H12.5855H12.5856H12.5856H12.5856H12.5856H12.5856H12.5856H12.5857H12.5857H12.5857H12.5857H12.5857H12.5857H12.5858H12.5858H12.5858H12.5858H12.5858H12.5858H12.5859H12.5859H12.5859H12.5859H12.5859H12.5859H12.586H12.586H12.586H12.586H12.586H12.5861H12.5861H12.5861H12.5861H12.5861H12.5861H12.5862H12.5862H12.5862H12.5862H12.5862H12.5862H12.5863H12.5863H12.5863H12.5863H12.5863H12.5863H12.5864H12.5864H12.5864H12.5864H12.5864H12.5864H12.5865H12.5865H12.5865H12.5865H12.5865H12.5865H12.5866H12.5866H12.5866H12.5866H12.5866H12.5866M12.5783 10.6536C12.1147 10.6554 11.7403 11.0327 11.7421 11.4963L11.7421 11.4965L11.7421 12.3888C11.7421 12.9257 11.3224 13.3372 10.7867 13.3372H8.99517H8.93892V13.281V7.01257C8.93892 5.59237 8.08978 4.30493 6.78439 3.74549L6.78439 3.74549L4.08667 2.58906L4.10884 2.48111H10.7867C11.3223 2.48111 11.7421 2.89278 11.7421 3.42959V4.32861M12.5866 10.6536C13.0503 10.6554 13.4247 11.0327 13.4229 11.4964V11.4966V12.3888C13.4229 13.831 12.2293 15.0163 10.7866 15.0163H8.99513H8.93888V15.0725V16.8657C8.93888 18.2585 7.31548 19.162 6.13479 18.4241M6.13479 18.4241L2.18798 15.9521L2.18793 15.952C0.887995 15.1396 0.0992662 13.7103 0.0992662 12.1771L0.0992672 3.43662L0.0992651 3.43627C0.091445 2.15708 1.07076 0.806502 2.72684 0.800391M11.7421 4.32861C11.7438 4.79001 12.1169 5.16321 12.5783 5.16479H12.5783C13.0423 5.16664 13.4213 4.79223 13.4229 4.32862M13.4229 4.32862V3.42962C13.4229 1.98755 12.2291 0.800425 10.7866 0.800391H2.72684M15.8987 10.3331L17.6429 8.58708C17.8396 8.41773 17.9533 8.17136 17.9543 7.91176C17.9552 7.65709 17.8477 7.41405 17.6587 7.24344L17.6497 7.23469L15.8985 5.48521C15.7241 5.30967 15.4848 5.21405 15.2374 5.22111M15.8987 10.3331L15.859 10.2932M15.8987 10.3331C15.5493 10.6805 14.9849 10.6805 14.6355 10.3331M15.8987 10.3331L15.8589 10.2933L15.859 10.2932M15.859 10.2932L17.6031 8.54732L17.6061 8.54433L17.6062 8.54445C17.7906 8.38573 17.8971 8.15483 17.8981 7.91153C17.8989 7.67288 17.7982 7.4451 17.621 7.2852L17.6188 7.28327L17.6189 7.28321L17.6109 7.27539L17.6099 7.27449L17.6099 7.27448L15.8587 5.525L15.8585 5.52485C15.6952 5.3604 15.471 5.27078 15.2392 5.27733M15.859 10.2932C15.5316 10.6187 15.0028 10.6188 14.6753 10.2933M15.2392 5.27733C15.2393 5.27733 15.2394 5.27733 15.2395 5.27732L15.2374 5.22111M15.2392 5.27733C15.2392 5.27734 15.2391 5.27734 15.239 5.27734L15.2374 5.22111M15.2392 5.27733C15.0268 5.28547 14.8252 5.37396 14.6755 5.5249L14.6752 5.52516C14.3465 5.85214 14.3451 6.38367 14.672 6.71236M15.2374 5.22111C15.0105 5.22973 14.7954 5.32416 14.6355 5.48528C14.2848 5.83417 14.2833 6.40131 14.6322 6.75203M14.672 6.71236L14.6719 6.71226L14.6322 6.75203M14.672 6.71236L14.6753 6.71563L14.9325 6.9728L15.0285 7.06882H14.8927H11.6859H11.6857C11.222 7.06701 10.8447 7.44137 10.8429 7.90502M14.672 6.71236L14.6322 6.75203M14.6322 6.75203L14.6355 6.7554L14.8364 6.95632H14.8927V7.01257L14.8529 7.05234L14.8132 7.01257H11.6859C11.1912 7.01064 10.7886 7.41008 10.7867 7.9048M14.9015 8.80403H14.8219L14.8617 8.76425L14.9015 8.80403ZM14.9015 8.80403L14.8452 8.86028H14.9015V8.80403ZM14.6355 9.06995C14.2881 9.41933 14.2881 9.9837 14.6355 10.3331M14.6355 9.06995L10.7867 7.9048M14.6355 9.06995L14.6754 9.10961M14.6355 9.06995L14.6753 9.10972L14.6754 9.10961M14.6355 10.3331L14.6752 10.2932C14.6752 10.2932 14.6753 10.2933 14.6753 10.2933M14.6355 10.3331L14.6754 10.2934C14.6754 10.2934 14.6753 10.2933 14.6753 10.2933M14.6753 10.2933C14.3498 9.96585 14.3499 9.43701 14.6754 9.10961M14.6754 9.10961L14.9412 8.8438L15.0373 8.74778H14.9015L11.6859 8.74778L11.6857 8.74778C11.2221 8.74959 10.8447 8.3752 10.8429 7.91158M10.8429 7.91158V7.90502M10.8429 7.91158L10.7867 7.9118H10.8429V7.91158ZM10.8429 7.90502L10.7867 7.9048M10.8429 7.90502V7.9048H10.7867M1.83451 3.45209L1.82294 3.50834H1.77829V12.1771C1.77829 13.1334 2.26167 14.0182 3.0731 14.5253L7.02869 16.9991L7.0287 16.9991C7.05697 17.0168 7.08484 17.0307 7.11156 17.0374C7.13874 17.0442 7.17063 17.0448 7.19956 17.0272C7.22783 17.0099 7.24221 16.9818 7.24974 16.9558C7.2573 16.9296 7.25996 16.8988 7.25996 16.8657V14.1802V7.01257C7.25996 6.25904 6.81439 5.58511 6.12193 5.28834L1.89079 3.47129V3.45209H1.83454H1.83451Z" fill="#0041F2" stroke="white" stroke-width="0.1125"/>
</svg>
