<svg width="19" height="14" viewBox="0 0 19 14" fill="none" xmlns="http://www.w3.org/2000/svg">
<path d="M18.5633 2.70152C18.1832 1.61599 16.9253 0.958585 15.7676 0.807862C11.6035 0.397379 7.40431 0.397379 3.24025 0.807862C2.08255 0.958585 0.82118 1.60958 0.444496 2.70152C-0.148165 5.50378 -0.148165 8.38622 0.444496 11.1885C0.824635 12.2724 2.08255 12.9314 3.24025 13.0821C7.40431 13.4926 11.6035 13.4926 15.7676 13.0821C16.9253 12.9314 18.1866 12.2804 18.5633 11.1885C19.156 8.38622 19.156 5.50378 18.5633 2.70152ZM7.22998 10.3242V3.56416L13.1602 6.9442C11.161 8.08424 9.22053 9.189 7.22998 10.3242Z" fill="#F50B0B"/>
</svg>
