<svg width="15" height="12" viewBox="0 0 15 12" fill="none" xmlns="http://www.w3.org/2000/svg">
<path d="M8.1699 11.1313C3.04497 11.1313 0.121799 7.27878 0 0.868164H2.56715C2.65147 5.5734 4.54403 7.56644 6.0431 7.97738V0.868164H8.46034V4.92617C9.94066 4.75152 11.4959 2.9023 12.0206 0.868164H14.4379C14.2401 1.92313 13.846 2.92201 13.2802 3.80233C12.7143 4.68265 11.9889 5.42547 11.1493 5.98433C12.0865 6.49498 12.9143 7.21776 13.5781 8.10497C14.2418 8.99218 14.7265 10.0237 15 11.1313H12.3392C12.0936 10.1692 11.5946 9.308 10.9046 8.65557C10.2146 8.00314 9.36431 7.58853 8.46034 7.46371V11.1313H8.1699Z" fill="#0077FF"/>
</svg>
