<svg width="38" height="38" viewBox="0 0 38 38" fill="none" xmlns="http://www.w3.org/2000/svg">
<path d="M23.5552 8.96307C21.0002 8.96307 18.4887 9.63945 16.2928 10.9197C14.8543 11.7582 13.5717 12.8422 12.5033 14.1108C12.2117 12.5867 12.2131 11.0148 12.5164 9.47391L12.5184 9.46289L13.2594 5.71658L13.2646 5.65396C13.3852 4.18611 12.8866 2.72725 11.8959 1.65166C10.9291 0.602158 9.56298 0 8.1479 0C6.73281 0 5.36672 0.602158 4.39985 1.65166C3.40949 2.72725 2.91055 4.18611 3.03144 5.65396L3.03637 5.71687L3.7774 9.46318C4.37985 12.5093 3.81016 15.6291 2.17329 18.2474C0.917658 20.2556 0.175761 22.5732 0.0276131 24.95C-0.120245 27.3261 0.327677 29.7206 1.32354 31.8743L4.15574 38H12.1401L13.9152 34.1609C16.5514 36.5229 19.9826 37.8519 23.5552 37.8519C31.5201 37.8519 37.9998 31.3722 37.9998 23.4073C37.9998 15.4427 31.5201 8.96307 23.5552 8.96307ZM6.1582 10.3703H10.1388C10.0732 11.0119 10.0509 11.6552 10.0718 12.2962H6.22633C6.24633 11.6567 6.2243 11.0134 6.1582 10.3703ZM6.0344 3.1572C6.58988 2.55417 7.34048 2.22221 8.1479 2.22221C8.95532 2.22221 9.70591 2.55417 10.2614 3.1572C10.8195 3.76312 11.1068 4.58272 11.054 5.41362L10.5133 8.14812H5.78275L5.24177 5.41362C5.18929 4.58272 5.47631 3.76312 6.0344 3.1572ZM10.7195 35.7778H5.57662L3.34049 30.9417C1.61491 27.209 1.88279 22.904 4.05746 19.4253C5.00781 17.9053 5.65374 16.2429 5.98164 14.5185H10.3182C10.4478 15.1977 10.6264 15.8689 10.8543 16.527C9.71258 18.6315 9.111 20.9987 9.111 23.4073C9.111 26.695 10.2286 29.8678 12.2708 32.4223L10.7195 35.7778ZM23.5552 35.6296C20.0617 35.6296 16.7271 34.1284 14.4069 31.5111C12.4248 29.2749 11.3332 26.3972 11.3332 23.4073C11.3332 21.217 11.92 19.0678 13.0301 17.1924C15.223 13.4869 19.2564 11.1853 23.5552 11.1853C30.2947 11.1853 35.7776 16.6682 35.7776 23.4073C35.7776 30.1467 30.2947 35.6296 23.5552 35.6296Z" fill="#EB0D6F"/>
<path d="M29.5561 18.2227C27.718 18.2227 26.2227 19.718 26.2227 21.5561C26.2227 23.3942 27.718 24.8893 29.5561 24.8893C31.3942 24.8893 32.8896 23.3942 32.8896 21.5561C32.8896 19.718 31.3942 18.2227 29.5561 18.2227ZM29.5561 22.6671C28.9435 22.6671 28.4452 22.1687 28.4452 21.5561C28.4452 20.9435 28.9435 20.4449 29.5561 20.4449C30.1687 20.4449 30.6674 20.9435 30.6674 21.5561C30.6674 22.1687 30.1687 22.6671 29.5561 22.6671Z" fill="#EB0D6F"/>
<path d="M23.5558 12.5928C21.718 12.5928 20.2227 14.0882 20.2227 15.9262C20.2227 17.764 21.718 19.2594 23.5558 19.2594C25.3939 19.2594 26.8893 17.764 26.8893 15.9262C26.8893 14.0882 25.3939 12.5928 23.5558 12.5928ZM23.5558 17.0372C22.9432 17.0372 22.4449 16.5388 22.4449 15.9262C22.4449 15.3134 22.9432 14.815 23.5558 14.815C24.1687 14.815 24.6671 15.3134 24.6671 15.9262C24.6671 16.5388 24.1687 17.0372 23.5558 17.0372Z" fill="#EB0D6F"/>
<path d="M21.3332 20.4443C19.4954 20.4443 18 21.9397 18 23.7778C18 25.6159 19.4954 27.111 21.3332 27.111C23.1712 27.111 24.6666 25.6159 24.6666 23.7778C24.6666 21.9397 23.1712 20.4443 21.3332 20.4443ZM21.3332 24.8888C20.7206 24.8888 20.2222 24.3904 20.2222 23.7778C20.2222 23.1652 20.7206 22.6665 21.3332 22.6665C21.9461 22.6665 22.4444 23.1652 22.4444 23.7778C22.4444 24.3904 21.9461 24.8888 21.3332 24.8888Z" fill="#EB0D6F"/>
</svg>
