<svg width="169" height="55" viewBox="0 0 169 55" fill="none" xmlns="http://www.w3.org/2000/svg">
<path d="M8.84497 19.9052C7.27898 19.9052 5.88229 20.8335 5.24743 22.1836C5.62834 18.9769 6.89806 15.8547 8.92962 13.2387L5.75531 10.1586C2.49636 14.1669 0.71875 19.1035 0.71875 24.0823C0.71875 28.8924 2.36939 33.6602 5.41672 37.5842L8.59103 34.4619C6.64412 31.8037 5.45905 28.6392 5.2051 25.4325C5.83996 26.8249 7.23666 27.8375 8.84497 27.8375C11.0035 27.8375 12.8234 26.0232 12.8234 23.8714C12.8234 21.7195 11.0035 19.9052 8.84497 19.9052Z" fill="#0041F2"/>
<path d="M34.4948 38.1327C31.0665 41.5925 26.8764 44.8414 24.21 46.7823V44.2085C24.21 43.0271 23.2789 42.0567 22.1361 42.0145C18.4539 41.8035 14.8564 40.4111 11.936 38.0061L8.76172 41.0862C11.9783 43.7866 15.7452 45.5587 19.8083 46.1916V51.0438C19.8083 51.8455 20.2739 52.605 20.9934 52.9847C21.332 53.1535 21.6706 53.2378 22.0515 53.2378C22.4747 53.2378 22.898 53.1113 23.2789 52.8581C23.6175 52.6471 31.5744 47.4152 37.7114 41.1706L34.4948 38.1327Z" fill="#C4C2CF"/>
<path d="M37.1175 6.74084C33.0967 3.49196 28.1871 1.71985 23.1505 1.71985C18.114 1.71985 13.2044 3.49196 9.18359 6.74084L12.3579 9.86314C15.2783 7.66909 18.7488 6.3611 22.2617 6.19233C20.4841 6.57207 19.1298 8.2176 19.1298 10.0741C19.1298 12.226 20.9497 14.0403 23.1082 14.0403C25.2667 14.0403 27.0867 12.226 27.0867 10.0741C27.0867 8.17541 25.7323 6.57207 23.9547 6.19233C27.5099 6.3611 30.9805 7.66909 33.9009 9.86314L37.1175 6.74084Z" fill="#C4C2CF"/>
<path d="M40.505 10.1586L37.3307 13.2387C39.4045 15.8968 40.6743 19.0613 41.0129 22.3102C40.378 20.9178 38.9813 19.9052 37.373 19.9052C35.2145 19.9052 33.3945 21.7195 33.3945 23.8714C33.3945 26.0232 35.2145 27.8375 37.373 27.8375C39.0236 27.8375 40.505 26.7827 41.0975 25.3059C40.9705 26.8249 40.6743 28.3438 40.1664 29.7784C39.6585 31.2552 39.1083 32.3522 38.4311 33.4492C38.2195 33.7868 37.9655 34.1243 37.7116 34.504L40.9282 37.6263C41.3938 37.0356 41.817 36.4449 42.1556 35.8542C43.0444 34.5462 43.7216 33.0695 44.3565 31.2552C45.1606 28.9345 45.5839 26.5295 45.5839 24.0823C45.5415 19.1035 43.7639 14.1669 40.505 10.1586Z" fill="#EB0D6F"/>
<path d="M32.1503 14.3097C32.1503 18.635 28.0902 22.1414 23.082 22.1414C18.0737 22.1414 14.0137 18.635 14.0137 14.3097C14.0137 9.98437 18.0737 6.0658 23.082 6.0658C28.0902 6.0658 32.1503 9.98437 32.1503 14.3097Z" fill="white"/>
<path d="M64.0191 22.3109C65.813 22.3109 67.2815 22.8473 68.4246 23.9201C69.5678 24.9753 70.1394 26.3471 70.1394 28.0354C70.1394 29.7414 69.5678 31.1307 68.4246 32.2035C67.2815 33.2588 65.813 33.7864 64.0191 33.7864H56.9491V15.32H68.5565V18.8023H60.5896V22.3109H64.0191ZM64.0191 30.3833C64.7401 30.3833 65.3381 30.181 65.813 29.7765C66.2878 29.3545 66.5252 28.7741 66.5252 28.0354C66.5252 27.2968 66.2878 26.7252 65.813 26.3207C65.3381 25.9162 64.7401 25.7139 64.0191 25.7139H60.5896V30.3833H64.0191ZM83.4605 32.1508C82.1063 33.4874 80.4531 34.1557 78.5009 34.1557C76.5488 34.1557 74.8956 33.4874 73.5414 32.1508C72.2048 30.7966 71.5365 29.1434 71.5365 27.1913C71.5365 25.2391 72.2048 23.5947 73.5414 22.2581C74.8956 20.9039 76.5488 20.2268 78.5009 20.2268C80.4531 20.2268 82.1063 20.9039 83.4605 22.2581C84.8147 23.5947 85.4918 25.2391 85.4918 27.1913C85.4918 29.1434 84.8147 30.7966 83.4605 32.1508ZM75.942 29.8029C76.6279 30.4888 77.4809 30.8318 78.5009 30.8318C79.521 30.8318 80.3739 30.4888 81.0598 29.8029C81.7457 29.117 82.0887 28.2465 82.0887 27.1913C82.0887 26.136 81.7457 25.2655 81.0598 24.5796C80.3739 23.8937 79.521 23.5507 78.5009 23.5507C77.4809 23.5507 76.6279 23.8937 75.942 24.5796C75.2737 25.2655 74.9396 26.136 74.9396 27.1913C74.9396 28.2465 75.2737 29.117 75.942 29.8029ZM98.8681 20.5961V33.7864H95.465V23.8673H91.8245V28.2729C91.8245 32.353 89.9691 34.1909 86.2582 33.7864V30.5943C86.9617 30.7702 87.4981 30.6559 87.8674 30.2514C88.2368 29.8293 88.4214 29.1082 88.4214 28.0882V20.5961H98.8681ZM112.346 20.5961V23.8673H108.231V33.7864H104.827V23.8673H100.659V20.5961H112.346ZM123.673 20.5961H127.076V33.7864H123.673V32.2299C122.653 33.5138 121.219 34.1557 119.373 34.1557C117.614 34.1557 116.101 33.4874 114.835 32.1508C113.586 30.7966 112.962 29.1434 112.962 27.1913C112.962 25.2391 113.586 23.5947 114.835 22.2581C116.101 20.9039 117.614 20.2268 119.373 20.2268C121.219 20.2268 122.653 20.8687 123.673 22.1526V20.5961ZM117.394 29.8821C118.08 30.568 118.95 30.9109 120.006 30.9109C121.061 30.9109 121.931 30.568 122.617 29.8821C123.321 29.1786 123.673 28.2816 123.673 27.1913C123.673 26.1009 123.321 25.2127 122.617 24.5268C121.931 23.8233 121.061 23.4716 120.006 23.4716C118.95 23.4716 118.08 23.8233 117.394 24.5268C116.708 25.2127 116.365 26.1009 116.365 27.1913C116.365 28.2816 116.708 29.1786 117.394 29.8821ZM133.037 28.5894C133.494 30.2426 134.734 31.0692 136.757 31.0692C138.058 31.0692 139.043 30.6295 139.711 29.7502L142.455 31.333C141.153 33.2148 139.236 34.1557 136.704 34.1557C134.523 34.1557 132.773 33.4962 131.454 32.1772C130.135 30.8581 129.476 29.1962 129.476 27.1913C129.476 25.2039 130.126 23.5507 131.428 22.2317C132.729 20.8951 134.4 20.2268 136.44 20.2268C138.375 20.2268 139.966 20.8951 141.215 22.2317C142.481 23.5683 143.114 25.2215 143.114 27.1913C143.114 27.6309 143.07 28.097 142.982 28.5894H133.037ZM132.984 25.9514H139.711C139.518 25.0544 139.113 24.3861 138.498 23.9465C137.9 23.5068 137.214 23.2869 136.44 23.2869C135.526 23.2869 134.769 23.5244 134.171 23.9992C133.573 24.4565 133.178 25.1072 132.984 25.9514ZM159.208 20.5961V33.7864H155.91V26.0833L152.56 31.3594H152.138L148.761 26.0305V33.7864H145.49V20.5961H148.84L152.349 26.136L155.858 20.5961H159.208Z" fill="#00195B"/>
<path d="M64.0191 22.3109C65.813 22.3109 67.2815 22.8473 68.4246 23.9201C69.5678 24.9753 70.1394 26.3471 70.1394 28.0354C70.1394 29.7414 69.5678 31.1307 68.4246 32.2035C67.2815 33.2588 65.813 33.7864 64.0191 33.7864H56.9491V15.32H68.5565V18.8023H60.5896V22.3109H64.0191ZM64.0191 30.3833C64.7401 30.3833 65.3381 30.181 65.813 29.7765C66.2878 29.3545 66.5252 28.7741 66.5252 28.0354C66.5252 27.2968 66.2878 26.7252 65.813 26.3207C65.3381 25.9162 64.7401 25.7139 64.0191 25.7139H60.5896V30.3833H64.0191ZM83.4605 32.1508C82.1063 33.4874 80.4531 34.1557 78.5009 34.1557C76.5488 34.1557 74.8956 33.4874 73.5414 32.1508C72.2048 30.7966 71.5365 29.1434 71.5365 27.1913C71.5365 25.2391 72.2048 23.5947 73.5414 22.2581C74.8956 20.9039 76.5488 20.2268 78.5009 20.2268C80.4531 20.2268 82.1063 20.9039 83.4605 22.2581C84.8147 23.5947 85.4918 25.2391 85.4918 27.1913C85.4918 29.1434 84.8147 30.7966 83.4605 32.1508ZM75.942 29.8029C76.6279 30.4888 77.4809 30.8318 78.5009 30.8318C79.521 30.8318 80.3739 30.4888 81.0598 29.8029C81.7457 29.117 82.0887 28.2465 82.0887 27.1913C82.0887 26.136 81.7457 25.2655 81.0598 24.5796C80.3739 23.8937 79.521 23.5507 78.5009 23.5507C77.4809 23.5507 76.6279 23.8937 75.942 24.5796C75.2737 25.2655 74.9396 26.136 74.9396 27.1913C74.9396 28.2465 75.2737 29.117 75.942 29.8029ZM98.8681 20.5961V33.7864H95.465V23.8673H91.8245V28.2729C91.8245 32.353 89.9691 34.1909 86.2582 33.7864V30.5943C86.9617 30.7702 87.4981 30.6559 87.8674 30.2514C88.2368 29.8293 88.4214 29.1082 88.4214 28.0882V20.5961H98.8681ZM112.346 20.5961V23.8673H108.231V33.7864H104.827V23.8673H100.659V20.5961H112.346ZM123.673 20.5961H127.076V33.7864H123.673V32.2299C122.653 33.5138 121.219 34.1557 119.373 34.1557C117.614 34.1557 116.101 33.4874 114.835 32.1508C113.586 30.7966 112.962 29.1434 112.962 27.1913C112.962 25.2391 113.586 23.5947 114.835 22.2581C116.101 20.9039 117.614 20.2268 119.373 20.2268C121.219 20.2268 122.653 20.8687 123.673 22.1526V20.5961ZM117.394 29.8821C118.08 30.568 118.95 30.9109 120.006 30.9109C121.061 30.9109 121.931 30.568 122.617 29.8821C123.321 29.1786 123.673 28.2816 123.673 27.1913C123.673 26.1009 123.321 25.2127 122.617 24.5268C121.931 23.8233 121.061 23.4716 120.006 23.4716C118.95 23.4716 118.08 23.8233 117.394 24.5268C116.708 25.2127 116.365 26.1009 116.365 27.1913C116.365 28.2816 116.708 29.1786 117.394 29.8821ZM133.037 28.5894C133.494 30.2426 134.734 31.0692 136.757 31.0692C138.058 31.0692 139.043 30.6295 139.711 29.7502L142.455 31.333C141.153 33.2148 139.236 34.1557 136.704 34.1557C134.523 34.1557 132.773 33.4962 131.454 32.1772C130.135 30.8581 129.476 29.1962 129.476 27.1913C129.476 25.2039 130.126 23.5507 131.428 22.2317C132.729 20.8951 134.4 20.2268 136.44 20.2268C138.375 20.2268 139.966 20.8951 141.215 22.2317C142.481 23.5683 143.114 25.2215 143.114 27.1913C143.114 27.6309 143.07 28.097 142.982 28.5894H133.037ZM132.984 25.9514H139.711C139.518 25.0544 139.113 24.3861 138.498 23.9465C137.9 23.5068 137.214 23.2869 136.44 23.2869C135.526 23.2869 134.769 23.5244 134.171 23.9992C133.573 24.4565 133.178 25.1072 132.984 25.9514ZM159.208 20.5961V33.7864H155.91V26.0833L152.56 31.3594H152.138L148.761 26.0305V33.7864H145.49V20.5961H148.84L152.349 26.136L155.858 20.5961H159.208Z" fill="url(#paint0_linear_30_1426)" fill-opacity="0.2"/>
<defs>
<linearGradient id="paint0_linear_30_1426" x1="108.234" y1="8.78638" x2="108.234" y2="40.7864" gradientUnits="userSpaceOnUse">
<stop stop-color="#D8D8D8"/>
<stop offset="1" stop-color="white" stop-opacity="0"/>
</linearGradient>
</defs>
</svg>
