<svg width="43" height="44" viewBox="0 0 43 44" fill="none" xmlns="http://www.w3.org/2000/svg">
<path d="M41.7402 3.01953H35.3415C35.3517 2.6028 35.3574 2.18305 35.3574 1.75977C35.3574 1.06404 34.7934 0.5 34.0977 0.5H8.90234C8.20662 0.5 7.64258 1.06404 7.64258 1.75977C7.64258 2.18305 7.64829 2.6028 7.65854 3.01953H1.25977C0.564039 3.01953 0 3.58357 0 4.2793V7.4702C0 14.5188 5.59454 20.2931 12.6029 20.6396C14.0635 22.6314 15.7843 24.0731 17.699 24.8964C17.5282 28.3034 16.3793 31.0627 15.4033 32.8281C14.2421 34.9288 13.0603 36.1326 13.0506 36.1424V36.1425C12.82 36.373 12.6816 36.6971 12.6816 37.0332V40.9805H11.4219C10.7261 40.9805 10.1621 41.5445 10.1621 42.2402C10.1621 42.936 10.7261 43.5 11.4219 43.5H31.5781C32.2739 43.5 32.8379 42.936 32.8379 42.2402C32.8379 41.5445 32.2739 40.9805 31.5781 40.9805H30.3184V37.0332C30.3184 36.7135 30.1905 36.3835 29.9494 36.1425C29.9494 36.1425 29.9494 36.1425 29.9494 36.1424C29.9046 36.0975 25.6396 31.754 25.3006 24.8965C27.2156 24.0732 28.9365 22.6315 30.3971 20.6395C37.4055 20.2931 43 14.5188 43 7.4702V4.2793C43 3.58357 42.436 3.01953 41.7402 3.01953ZM2.51953 7.4702V5.53906H7.78544C8.1102 9.74811 9.03386 14.1429 10.924 17.8801C6.1207 16.8152 2.51953 12.5524 2.51953 7.4702ZM15.2012 40.9805V38.293H27.7988V40.9805H15.2012ZM23.6354 22.8327C23.1138 22.9998 22.7598 23.4848 22.7598 24.0325C22.7598 29.3732 24.8631 33.4555 26.4481 35.7734H16.5519C18.1369 33.4555 20.2402 29.3732 20.2402 24.0325C20.2402 23.4848 19.8863 22.9998 19.3646 22.8327C16.3774 21.8763 14.2763 19.0995 12.9262 16.2413C11.2536 12.7 10.3103 8.15014 10.1782 3.01953H32.8218C32.6897 8.15014 31.7464 12.7 30.0737 16.2413C28.7371 19.071 26.6403 21.8706 23.6354 22.8327ZM40.4805 7.4702C40.4805 12.5524 36.8793 16.8152 32.0759 17.8801C33.9661 14.1429 34.8898 9.74819 35.2145 5.53898H40.4805V7.4702Z" fill="#EB0D6F"/>
</svg>
