<svg width="16" height="16" viewBox="0 0 16 16" fill="none" xmlns="http://www.w3.org/2000/svg">
<g clip-path="url(#clip0_101_3858)">
<path d="M15.9993 7.49735C15.9027 5.9376 15.3517 4.44023 14.4144 3.18981C13.477 1.9394 12.1943 0.990591 10.7242 0.460356C9.25417 -0.0698791 7.66111 -0.158367 6.14139 0.205799C4.62167 0.569966 3.24172 1.37087 2.17166 2.50978C1.10159 3.6487 0.388181 5.07584 0.119362 6.61529C-0.149457 8.15473 0.0380686 9.7392 0.658822 11.1734C1.27957 12.6075 2.30642 13.8287 3.61279 14.6864C4.91915 15.544 6.44793 16.0007 8.01067 16H12.3327C13.3048 15.9988 14.2367 15.6121 14.924 14.9247C15.6114 14.2373 15.9981 13.3054 15.9993 12.3334V7.56002V7.49735ZM13.9993 12.3334C13.9993 12.7754 13.8237 13.1993 13.5112 13.5119C13.1986 13.8244 12.7747 14 12.3327 14H8.01067C7.16365 13.9995 6.32625 13.8205 5.55306 13.4746C4.77987 13.1287 4.08827 12.6238 3.52334 11.9927C2.95591 11.362 2.52987 10.6174 2.27381 9.8086C2.01775 8.99982 1.93758 8.14565 2.03867 7.30335C2.19818 5.97547 2.79495 4.7384 3.73496 3.78704C4.67498 2.83568 5.9048 2.22411 7.23067 2.04869C7.49008 2.01631 7.75125 2.00006 8.01267 2.00002C9.4101 1.99602 10.7644 2.48357 11.8387 3.37735C12.4649 3.89756 12.9793 4.53929 13.3506 5.26379C13.722 5.98829 13.9427 6.78053 13.9993 7.59269V12.3334Z" fill="#0041F2"/>
<path d="M6.33594 7.33301H8.33594C8.60115 7.33301 8.85551 7.22765 9.04304 7.04011C9.23058 6.85258 9.33594 6.59822 9.33594 6.33301C9.33594 6.06779 9.23058 5.81344 9.04304 5.6259C8.85551 5.43836 8.60115 5.33301 8.33594 5.33301H6.33594C6.07072 5.33301 5.81637 5.43836 5.62883 5.6259C5.44129 5.81344 5.33594 6.06779 5.33594 6.33301C5.33594 6.59822 5.44129 6.85258 5.62883 7.04011C5.81637 7.22765 6.07072 7.33301 6.33594 7.33301Z" fill="#0041F2"/>
<path d="M11.0026 8.66699H6.33594C6.07072 8.66699 5.81637 8.77235 5.62883 8.95989C5.44129 9.14742 5.33594 9.40178 5.33594 9.66699C5.33594 9.93221 5.44129 10.1866 5.62883 10.3741C5.81637 10.5616 6.07072 10.667 6.33594 10.667H11.0026C11.2678 10.667 11.5222 10.5616 11.7097 10.3741C11.8972 10.1866 12.0026 9.93221 12.0026 9.66699C12.0026 9.40178 11.8972 9.14742 11.7097 8.95989C11.5222 8.77235 11.2678 8.66699 11.0026 8.66699Z" fill="#0041F2"/>
</g>
<defs>
<clipPath id="clip0_101_3858">
<rect width="16" height="16" fill="white"/>
</clipPath>
</defs>
</svg>
