<svg width="18" height="18" viewBox="0 0 18 18" fill="none" xmlns="http://www.w3.org/2000/svg">
<g opacity="0.6" clip-path="url(#clip0_33_3852)">
<path d="M7.50037 9C7.30146 9 7.1107 8.92098 6.97004 8.78033C6.82939 8.63968 6.75037 8.44891 6.75037 8.25C6.75037 7.4595 6.24037 6.75 6.00037 6.75C5.76037 6.75 5.25037 7.4595 5.25037 8.25C5.25037 8.44891 5.17136 8.63968 5.0307 8.78033C4.89005 8.92098 4.69929 9 4.50037 9C4.30146 9 4.1107 8.92098 3.97004 8.78033C3.82939 8.63968 3.75037 8.44891 3.75037 8.25C3.75037 6.831 4.67437 5.25 6.00037 5.25C7.32637 5.25 8.25037 6.831 8.25037 8.25C8.25037 8.44891 8.17136 8.63968 8.0307 8.78033C7.89005 8.92098 7.69929 9 7.50037 9ZM14.2504 8.25C14.2504 6.831 13.3264 5.25 12.0004 5.25C10.6744 5.25 9.75037 6.831 9.75037 8.25C9.75037 8.44891 9.82939 8.63968 9.97004 8.78033C10.1107 8.92098 10.3015 9 10.5004 9C10.6993 9 10.8901 8.92098 11.0307 8.78033C11.1714 8.63968 11.2504 8.44891 11.2504 8.25C11.2504 7.4595 11.7604 6.75 12.0004 6.75C12.2404 6.75 12.7504 7.4595 12.7504 8.25C12.7504 8.44891 12.8294 8.63968 12.97 8.78033C13.1107 8.92098 13.3015 9 13.5004 9C13.6993 9 13.8901 8.92098 14.0307 8.78033C14.1714 8.63968 14.2504 8.44891 14.2504 8.25ZM18.0004 9C17.9978 6.61384 17.0488 4.32616 15.3615 2.63889C13.6742 0.951621 11.3865 0.00258081 9.00037 0C-2.92462 0.45 -2.91937 17.55 9.00037 18C11.3865 17.9974 13.6742 17.0484 15.3615 15.3611C17.0488 13.6738 17.9978 11.3862 18.0004 9ZM16.5004 9C16.4982 10.9885 15.7073 12.8948 14.3013 14.3009C12.8952 15.7069 10.9888 16.4978 9.00037 16.5C-0.936375 16.125 -0.932625 1.875 9.00037 1.5C10.9888 1.50218 12.8952 2.29306 14.3013 3.69911C15.7073 5.10516 16.4982 7.01155 16.5004 9ZM13.2499 11.8095C13.3932 11.6759 13.4786 11.4914 13.4876 11.2957C13.4967 11.0999 13.4288 10.9084 13.2985 10.762C13.1681 10.6157 12.9857 10.5262 12.7902 10.5127C12.5946 10.4992 12.4016 10.5627 12.2524 10.6898C11.3695 11.5122 10.2077 11.9694 9.00112 11.9694C7.79453 11.9694 6.63277 11.5122 5.74987 10.6898C5.60149 10.5573 5.40655 10.4892 5.20795 10.5004C5.00935 10.5117 4.82335 10.6014 4.69087 10.7498C4.5584 10.8981 4.4903 11.0931 4.50155 11.2917C4.5128 11.4903 4.60249 11.6763 4.75087 11.8088C5.94167 12.8264 7.43595 13.4211 9.00037 13.5C10.5647 13.4213 12.059 12.8269 13.2499 11.8095Z" fill="#6D727E"/>
</g>
<defs>
<clipPath id="clip0_33_3852">
<rect width="18" height="18" fill="white"/>
</clipPath>
</defs>
</svg>
