<svg width="18" height="18" viewBox="0 0 18 18" fill="none" xmlns="http://www.w3.org/2000/svg">
<path d="M17.471 7.17984C17.1777 6.8866 16.7022 6.8866 16.4089 7.17984L8.22712 15.3969C6.76037 16.8639 4.38217 16.864 2.9152 15.3973C1.44823 13.9306 1.44809 11.5524 2.91481 10.0854L10.8389 2.12897C11.726 1.25601 13.1529 1.26745 14.0258 2.15453C14.8887 3.03143 14.8889 4.43833 14.0262 5.31544L6.10206 13.2719C5.80512 13.5563 5.33681 13.5563 5.03991 13.2719C4.74667 12.9785 4.74667 12.503 5.03991 12.2097L12.0949 5.12241C12.3831 4.824 12.3749 4.34847 12.0765 4.06026C11.7854 3.7791 11.3239 3.7791 11.0328 4.06026L3.97777 11.1476C3.09763 12.0275 3.09752 13.4544 3.97748 14.3345C3.97759 14.3346 3.97766 14.3347 3.97777 14.3348C4.8697 15.1859 6.27304 15.1859 7.16498 14.3348L15.0883 6.37766C16.5363 4.89234 16.506 2.51446 15.0207 1.0665C13.5619 -0.355642 11.2354 -0.355466 9.7768 1.06682L1.85266 9.02321C-0.200888 11.0768 -0.200888 14.4063 1.85266 16.4598C3.90622 18.5134 7.23572 18.5134 9.28927 16.4598L17.471 8.24501C17.7652 7.95244 17.7665 7.47684 17.4739 7.18269C17.4729 7.18174 17.472 7.18079 17.471 7.17984Z" fill="#6D727E"/>
</svg>
