<svg width="38" height="34" viewBox="0 0 38 34" fill="none" xmlns="http://www.w3.org/2000/svg">
<path d="M34.4813 0.75H3.51875C1.71625 0.75 0.25 2.21625 0.25 4.02V29.9813C0.25 31.7838 1.71625 33.25 3.51875 33.25H34.4813C36.2837 33.25 37.75 31.7838 37.75 29.98V4.02C37.75 2.21625 36.2837 0.75 34.4813 0.75ZM35.25 4.02V8.25H31.9837L33.65 3.25H34.48C34.905 3.25 35.25 3.595 35.25 4.02ZM6.98375 8.25L8.65 3.25H12.2662L10.6 8.25H6.98375ZM14.9 3.25H18.5163L16.85 8.25H13.2338L14.9 3.25ZM21.15 3.25H24.7663L23.1 8.25H19.4837L21.15 3.25ZM27.4 3.25H31.0163L29.35 8.25H25.7337L27.4 3.25ZM3.51875 3.25H6.01625L4.35 8.25H2.75V4.02C2.75 3.595 3.095 3.25 3.51875 3.25ZM34.4813 30.75H3.51875C3.095 30.75 2.75 30.405 2.75 29.98V10.75H35.25V29.98C35.25 30.405 34.905 30.75 34.4813 30.75Z" fill="#EB0D6F"/>
<path d="M14.9375 27C14.7275 27 14.5175 26.9475 14.3275 26.8412C13.9325 26.62 13.6875 26.2025 13.6875 25.75V15.75C13.6875 15.2975 13.9325 14.88 14.3275 14.6587C14.7225 14.4375 15.2062 14.4487 15.5937 14.685L23.7188 19.685C24.0875 19.9137 24.3125 20.3162 24.3125 20.75C24.3125 21.1837 24.0875 21.5862 23.7175 21.815L15.5925 26.815C15.3913 26.9375 15.165 27 14.9375 27ZM16.1875 17.9875V23.5137L20.6775 20.75L16.1875 17.9875Z" fill="#EB0D6F"/>
</svg>
