<svg width="22" height="23" viewBox="0 0 22 23" fill="none" xmlns="http://www.w3.org/2000/svg">
<g clip-path="url(#clip0_101_5619)">
<path d="M20.6821 18.2135C21.5461 17.0372 22 15.6703 22 14.2296C22 11.9233 20.804 9.78222 18.7863 8.44607C18.6002 6.39135 17.6408 4.48582 16.0367 3.01762C14.2629 1.39413 11.9095 0.5 9.41017 0.5C6.91081 0.5 4.5575 1.39413 2.78367 3.01766C0.988608 4.66057 2.86527e-05 6.85103 2.86527e-05 9.18551C2.86527e-05 10.9811 0.57886 12.6834 1.6792 14.14L0.062677 18.1388C-0.0684204 18.4631 0.0100833 18.8345 0.261235 19.0779C0.424946 19.2366 0.640563 19.3203 0.859617 19.3203C0.976621 19.3203 1.09461 19.2964 1.20607 19.2473L5.81665 17.2149C6.39549 17.4361 6.9918 17.6016 7.60187 17.7112C8.22677 18.7389 9.11811 19.6092 10.2017 20.2428C11.4114 20.95 12.8082 21.3279 14.245 21.3388C14.2661 21.3403 14.2871 21.342 14.3086 21.342C15.3019 21.342 16.2644 21.1704 17.1748 20.8315L20.794 22.427C20.9054 22.4761 21.0234 22.5 21.1404 22.5C21.3595 22.5 21.5752 22.4163 21.7388 22.2576C21.99 22.0141 22.0685 21.6427 21.9374 21.3185L20.6821 18.2135ZM18.9015 18.3946L19.5507 20.0006L17.5382 19.1134C17.3206 19.0175 17.073 19.016 16.8543 19.1093C16.0655 19.4459 15.2209 19.6183 14.3434 19.6228C14.3318 19.6223 14.3204 19.6211 14.3086 19.6211C12.615 19.6211 11.015 18.9593 9.89726 17.8584C11.3145 17.7905 12.7037 17.4285 13.9422 16.7996C14.3654 16.5846 14.5342 16.0674 14.3193 15.6442C14.1044 15.221 13.5871 15.0523 13.1639 15.2671C12.0237 15.8462 10.7257 16.1523 9.41017 16.1523C8.26703 16.1523 7.16647 15.93 6.13922 15.4917C5.92055 15.3984 5.67288 15.3998 5.45533 15.4958L2.44933 16.8209L3.46141 14.3173C3.58142 14.0204 3.52647 13.6814 3.31871 13.4377C2.27204 12.2098 1.71878 10.7394 1.71878 9.18551C1.71878 5.34399 5.16912 2.21875 9.41017 2.21875C13.6512 2.21875 17.1016 5.34399 17.1016 9.18551C17.1016 10.4263 16.7368 11.6444 16.0466 12.708C15.7883 13.1062 15.9016 13.6384 16.2998 13.8967C16.6979 14.1551 17.2301 14.0417 17.4885 13.6435C18.101 12.6995 18.5102 11.6573 18.6994 10.5748C19.7061 11.5607 20.2812 12.8592 20.2812 14.2296C20.2812 15.4295 19.8535 16.5656 19.0442 17.515C18.8364 17.7587 18.7815 18.0977 18.9015 18.3946ZM10.2266 13.6054C10.2266 14.0801 9.84183 14.4648 9.3672 14.4648C8.89257 14.4648 8.50782 14.0801 8.50782 13.6054C8.50782 13.1308 8.89257 12.7461 9.3672 12.7461C9.84183 12.7461 10.2266 13.1308 10.2266 13.6054ZM12.6321 7.16667C12.6326 7.17862 12.6329 7.19056 12.6329 7.20264C12.6332 8.4963 11.8645 9.66049 10.6746 10.1684C10.4284 10.2736 10.2693 10.5215 10.2693 10.8001V10.8554C10.2693 11.3301 9.88454 11.7148 9.40991 11.7148C8.93528 11.7148 8.55054 11.3301 8.55054 10.8554V10.8001C8.55054 9.83202 9.1194 8.96362 9.99983 8.58778C10.5478 8.35381 10.9044 7.82182 10.9139 7.22769C10.9137 7.21944 10.9136 7.21115 10.9136 7.20285C10.9136 6.37377 10.239 5.69925 9.40991 5.69925C8.58083 5.69921 7.90626 6.37373 7.90626 7.20281C7.90626 7.67744 7.52152 8.06218 7.04689 8.06218C6.57226 8.06218 6.18752 7.67744 6.18752 7.20281C6.18752 5.42601 7.63307 3.98046 9.40991 3.98046C11.1747 3.98046 12.6127 5.40646 12.6321 7.16667Z" fill="#0041F2"/>
</g>
<defs>
<clipPath id="clip0_101_5619">
<rect width="22" height="22" fill="white" transform="translate(0 0.5)"/>
</clipPath>
</defs>
</svg>
