<svg width="21" height="21" viewBox="0 0 21 21" fill="none" xmlns="http://www.w3.org/2000/svg">
<path d="M16.025 0H4.00625C1.7938 0 0 1.7938 0 4.00625V12.0188C0 14.2312 1.7938 16.025 4.00625 16.025H16.025C18.2375 16.025 20.0313 14.2312 20.0313 12.0188V4.00625C20.0313 1.7938 18.2375 0 16.025 0ZM18.0281 12.0188C18.0281 13.1235 17.1297 14.0219 16.025 14.0219H4.00625C2.90153 14.0219 2.00313 13.1235 2.00313 12.0188V4.00625C2.00313 2.90153 2.90153 2.00313 4.00625 2.00313H16.025C17.1297 2.00313 18.0281 2.90153 18.0281 4.00625V12.0188Z" fill="white"/>
<path d="M0 10.0156V12.0188H20.0313V10.0156H0ZM5.00781 20.0313H15.0234V18.0281H5.00781V20.0313Z" fill="white"/>
</svg>
