<svg width="17" height="21" viewBox="0 0 17 21" fill="none" xmlns="http://www.w3.org/2000/svg">
<path d="M8.0125 2.00313C11.3267 2.00313 14.0219 4.78046 14.0219 8.19479C14.0219 12.9823 9.49782 17.313 8.01851 17.9781C6.56725 17.299 2.00313 12.8561 2.00313 8.19479C2.00313 4.78046 4.69833 2.00313 8.0125 2.00313ZM8.0125 0C3.5866 0 0 3.66873 0 8.19479C0 14.3133 6.20168 20.0313 8.0125 20.0313C9.82233 20.0313 16.025 14.4265 16.025 8.19479C16.025 3.66873 12.4374 0 8.0125 0Z" fill="white"/>
<path d="M8.01406 6.00899C9.11879 6.00899 10.0172 6.90739 10.0172 8.01211C10.0172 9.11684 9.11879 10.0152 8.01406 10.0152C6.90934 10.0152 6.01094 9.11684 6.01094 8.01211C6.01094 6.90739 6.90934 6.00899 8.01406 6.00899ZM8.01406 4.00586C5.80161 4.00586 4.00781 5.79966 4.00781 8.01211C4.00781 10.2246 5.80161 12.0184 8.01406 12.0184C10.2265 12.0184 12.0203 10.2246 12.0203 8.01211C12.0203 5.79966 10.2265 4.00586 8.01406 4.00586Z" fill="white"/>
</svg>
