<svg width="21" height="21" viewBox="0 0 21 21" fill="none" xmlns="http://www.w3.org/2000/svg">
<path d="M20.8125 10.4062C20.8132 12.8658 19.9387 15.2455 18.3453 17.1192L19.0911 17.865L17.8641 19.0912L17.1183 18.3454C15.2441 19.938 12.8648 20.8125 10.4053 20.8125C7.94587 20.8125 5.56653 19.938 3.69248 18.3454L2.94666 19.0912L1.72132 17.8641L2.4671 17.1183C0.874437 15.2442 0 12.8648 0 10.4053C0 7.94598 0.874437 5.56653 2.4671 3.69248L1.72132 2.94667L2.94839 1.72132L3.69422 2.4671C5.56827 0.874449 7.9476 0 10.4071 0C12.8665 0 15.2458 0.874449 17.12 2.4671L17.8658 1.72132L19.0911 2.9484L18.3453 3.69422C19.9385 5.56769 20.8131 7.94691 20.8125 10.4062ZM19.0781 10.4062C19.0797 8.40605 18.3863 6.46748 17.1165 4.92216L14.0198 8.01882C14.4908 8.72599 14.7421 9.55664 14.7421 10.4062C14.7421 11.2559 14.4908 12.0865 14.0198 12.7937L17.1165 15.8903C18.3863 14.345 19.0797 12.4064 19.0781 10.4062ZM7.80469 10.4062C7.80469 10.9208 7.9572 11.4237 8.24314 11.8516C8.52896 12.2795 8.93527 12.6128 9.4106 12.8097C9.88605 13.0067 10.4091 13.0582 10.9137 12.9579C11.4184 12.8575 11.882 12.6097 12.2458 12.2458C12.6096 11.882 12.8574 11.4184 12.9577 10.9138C13.0582 10.4091 13.0067 9.88605 12.8097 9.41072C12.6128 8.93527 12.2794 8.52896 11.8516 8.24314C11.4237 7.9572 10.9208 7.80469 10.4062 7.80469C9.7162 7.80469 9.05448 8.07872 8.56666 8.56666C8.07872 9.05459 7.80469 9.71632 7.80469 10.4062ZM10.4062 19.0781C12.4063 19.0797 14.3449 18.3863 15.8903 17.1165L12.7936 14.0199C12.0865 14.4908 11.2559 14.7422 10.4062 14.7422C9.55664 14.7422 8.72599 14.4908 8.01882 14.0199L4.92216 17.1165C6.46748 18.3863 8.40605 19.0797 10.4062 19.0781ZM1.73433 10.4062C1.73273 12.4064 2.42612 14.345 3.69595 15.8903L6.79262 12.7937C6.32168 12.0865 6.07031 11.2559 6.07031 10.4062C6.07031 9.55664 6.32168 8.72599 6.79262 8.01882L3.69595 4.92216C2.42612 6.46748 1.73273 8.40605 1.73433 10.4062ZM10.4062 1.73433C8.40605 1.73273 6.46748 2.42614 4.92216 3.69595L8.01882 6.79262C8.72599 6.32168 9.55664 6.07031 10.4062 6.07031C11.2559 6.07031 12.0865 6.32168 12.7936 6.79262L15.8903 3.69595C14.3449 2.42614 12.4063 1.73273 10.4062 1.73433Z" fill="white"/>
</svg>
