<svg width="21" height="21" viewBox="0 0 21 21" fill="none" xmlns="http://www.w3.org/2000/svg">
<path d="M16.025 2.00293H4.00625C1.7938 2.00293 0 3.79673 0 6.00918V16.0248C0 18.2373 1.7938 20.0311 4.00625 20.0311H16.025C18.2375 20.0311 20.0313 18.2373 20.0313 16.0248V6.00918C20.0313 3.79673 18.2375 2.00293 16.025 2.00293ZM18.0281 16.0248C18.0281 17.1295 17.1297 18.0279 16.025 18.0279H4.00625C2.90153 18.0279 2.00313 17.1295 2.00313 16.0248V6.00918C2.00313 4.90446 2.90153 4.00606 4.00625 4.00606H16.025C17.1297 4.00606 18.0281 4.90446 18.0281 6.00918V16.0248Z" fill="white"/>
<path d="M0 8.0125V10.0156H20.0313V8.0125H0ZM7.01094 0H5.00781V6.00938H7.01094V0ZM15.0234 0H13.0203V6.00938H15.0234V0Z" fill="white"/>
</svg>
