<svg width="21" height="21" viewBox="0 0 21 21" fill="none" xmlns="http://www.w3.org/2000/svg">
<path d="M16.025 0H4.00625C1.7938 0 0 1.59449 0 3.56156V6.00938V8.0125V12.4634C0 14.4305 1.7938 16.025 4.00625 16.025H6.00938L10.0156 20.0313L14.0219 16.025H16.025C18.2375 16.025 20.0313 14.4305 20.0313 12.4634V8.0125V6.00938V3.56156C20.0313 1.59449 18.2375 0 16.025 0ZM18.0281 12.4634C18.0281 13.3078 17.1107 14.0219 16.025 14.0219H14.0219H13.1926L12.6057 14.6088L10.0156 17.1988L7.42559 14.6088L6.83967 14.0219H6.00938H4.00625C2.92056 14.0219 2.00313 13.3078 2.00313 12.4634V8.0125H18.0281V12.4634ZM2.00313 6.00938V3.56156C2.00313 2.71624 2.92056 2.00313 4.00625 2.00313H16.025C17.1107 2.00313 18.0281 2.71624 18.0281 3.56156V6.00938H2.00313Z" fill="white"/>
<path d="M6.01094 3.00488H4.00781V5.00801H6.01094V3.00488Z" fill="white"/>
<path d="M12.0188 3.00488H10.0156V5.00801H12.0188V3.00488Z" fill="white"/>
<path d="M9.01484 3.00488H7.01172V5.00801H9.01484V3.00488Z" fill="white"/>
</svg>
