<svg width="47" height="47" viewBox="0 0 47 47" fill="none" xmlns="http://www.w3.org/2000/svg">
<g clip-path="url(#clip0_101_3667)">
<path d="M31.4212 46.912L24.2983 43.6473C23.7923 43.4155 23.2104 43.4155 22.7044 43.6473L15.5815 46.912C14.948 47.2023 14.2266 46.7394 14.2266 46.0426V25.1191H32.776V46.0426C32.776 46.7395 32.0547 47.2023 31.4212 46.912Z" fill="#0041F2"/>
<path d="M14.2266 25.1191V34.7632C16.9897 36.2525 20.1484 37.099 23.5013 37.099C25.6207 37.099 27.6618 36.7595 29.5748 36.1341C30.2006 35.9295 30.8437 36.3923 30.8437 37.0507V46.6474L31.421 46.9121C32.0545 47.2024 32.776 46.7395 32.776 46.0427V25.1191H14.2266Z" fill="#002894"/>
<path d="M23.5023 34.9733C33.1599 34.9733 40.989 27.1443 40.989 17.4867C40.989 7.82905 33.1599 0 23.5023 0C13.8447 0 6.01562 7.82905 6.01562 17.4867C6.01562 27.1443 13.8447 34.9733 23.5023 34.9733Z" fill="#FF9831"/>
<path d="M23.5023 34.9733C33.1599 34.9733 40.989 27.1443 40.989 17.4867C40.989 7.82905 33.1599 0 23.5023 0C13.8447 0 6.01562 7.82905 6.01562 17.4867C6.01562 27.1443 13.8447 34.9733 23.5023 34.9733Z" fill="url(#paint0_linear_101_3667)" fill-opacity="0.3"/>
<path d="M35.2811 4.56152C38.1145 7.66921 39.8425 11.8024 39.8425 16.3392C39.8425 25.9969 32.0134 33.8259 22.3558 33.8259C17.819 33.8259 13.6858 32.0979 10.5781 29.2645C13.7762 32.7722 18.3827 34.9735 23.5034 34.9735C33.1611 34.9735 40.9901 27.1444 40.9901 17.4868C40.9901 12.3661 38.7888 7.75963 35.2811 4.56152Z" fill="#EF8D2D"/>
<path d="M23.5006 31.5734C15.7333 31.5734 9.41406 25.2542 9.41406 17.4869C9.41406 9.7196 15.7333 3.40039 23.5006 3.40039C31.2679 3.40039 37.5871 9.7196 37.5871 17.4869C37.5871 25.2542 31.2679 31.5734 23.5006 31.5734Z" fill="#651D0D" fill-opacity="0.66"/>
<path d="M23.5004 30.116C16.5366 30.116 10.8711 24.4505 10.8711 17.4867C10.8711 10.5229 16.5366 4.85742 23.5004 4.85742C30.4642 4.85742 36.1297 10.5229 36.1297 17.4867C36.1297 24.4506 30.4642 30.116 23.5004 30.116Z" fill="#BB590A"/>
<path d="M23.5013 27.6873C17.8768 27.6873 13.3008 23.1114 13.3008 17.4868C13.3008 11.8622 17.8768 7.28613 23.5013 7.28613C29.1259 7.28613 33.7019 11.8621 33.7019 17.4867C33.7019 23.1113 29.1259 27.6873 23.5013 27.6873Z" fill="#EC7A08"/>
<path d="M23.5013 27.6873C17.8768 27.6873 13.3008 23.1114 13.3008 17.4868C13.3008 11.8622 17.8768 7.28613 23.5013 7.28613C29.1259 7.28613 33.7019 11.8621 33.7019 17.4867C33.7019 23.1113 29.1259 27.6873 23.5013 27.6873Z" fill="white" fill-opacity="0.1"/>
<path d="M23.5013 27.6873C17.8768 27.6873 13.3008 23.1114 13.3008 17.4868C13.3008 11.8622 17.8768 7.28613 23.5013 7.28613C29.1259 7.28613 33.7019 11.8621 33.7019 17.4867C33.7019 23.1113 29.1259 27.6873 23.5013 27.6873Z" fill="url(#paint1_linear_101_3667)" fill-opacity="0.3"/>
<path d="M25.714 16.53C26.518 16.782 27.166 17.214 27.658 17.826C28.15 18.438 28.396 19.176 28.396 20.04C28.396 21.396 27.952 22.44 27.064 23.172C26.176 23.904 25.078 24.27 23.77 24.27C22.726 24.27 21.796 24.03 20.98 23.55C20.176 23.07 19.594 22.362 19.234 21.426L22.042 19.824C22.306 20.7 22.882 21.138 23.77 21.138C24.226 21.138 24.574 21.03 24.814 20.814C25.066 20.598 25.192 20.31 25.192 19.95C25.192 19.59 25.066 19.308 24.814 19.104C24.574 18.888 24.226 18.78 23.77 18.78H23.086L21.844 16.944L23.86 14.478H19.63V11.4H27.82V13.938L25.714 16.53Z" fill="#8F4500"/>
<path opacity="0.5" d="M31.6124 25.0564L24.3164 27.1452C23.7982 27.2935 23.202 27.2935 22.6838 27.1452L15.3878 25.0564C14.739 24.8706 14 25.1668 14 25.6126V39H33V25.6126C33.0001 25.1667 32.2612 24.8706 31.6124 25.0564Z" fill="url(#paint2_linear_101_3667)"/>
</g>
<defs>
<linearGradient id="paint0_linear_101_3667" x1="23.5023" y1="0" x2="23.5023" y2="34.9733" gradientUnits="userSpaceOnUse">
<stop stop-color="white"/>
<stop offset="0.577854" stop-color="white" stop-opacity="0"/>
</linearGradient>
<linearGradient id="paint1_linear_101_3667" x1="23.5013" y1="7.28613" x2="23.5013" y2="27.6873" gradientUnits="userSpaceOnUse">
<stop stop-color="white"/>
<stop offset="1" stop-color="white" stop-opacity="0"/>
</linearGradient>
<linearGradient id="paint2_linear_101_3667" x1="23.5" y1="39" x2="23.5" y2="25" gradientUnits="userSpaceOnUse">
<stop stop-color="#0041F2"/>
<stop offset="1" stop-color="#0041F2" stop-opacity="0"/>
</linearGradient>
<clipPath id="clip0_101_3667">
<rect width="47" height="47" fill="white"/>
</clipPath>
</defs>
</svg>
