<svg width="19" height="17" viewBox="0 0 19 17" fill="none" xmlns="http://www.w3.org/2000/svg">
<path d="M18.0286 6.11231C17.6574 5.6845 17.1986 5.34145 16.6833 5.10638C16.1679 4.87132 15.6081 4.74973 15.0417 4.74985H11.8837L12.1497 3.13406C12.2438 2.56506 12.1303 1.98118 11.8298 1.48893C11.5293 0.996673 11.0618 0.628841 10.5127 0.45252C9.96358 0.276199 9.36938 0.303139 8.83847 0.528427C8.30756 0.753715 7.87532 1.16234 7.62058 1.67977L6.10533 4.74985H3.95833C2.9089 4.75111 1.90282 5.16855 1.16076 5.91061C0.418698 6.65267 0.00125705 7.65876 0 8.70819L0 12.6665C0.00125705 13.7159 0.418698 14.722 1.16076 15.4641C1.90282 16.2062 2.9089 16.6236 3.95833 16.6249H14.4875C15.4402 16.621 16.3599 16.2752 17.0793 15.6504C17.7986 15.0257 18.2698 14.1635 18.407 13.2207L18.9652 9.26235C19.0438 8.70085 19.0008 8.12901 18.8393 7.58555C18.6777 7.04208 18.4012 6.53967 18.0286 6.11231ZM1.58333 12.6665V8.70819C1.58333 8.0783 1.83356 7.47421 2.27896 7.02881C2.72435 6.58341 3.32844 6.33318 3.95833 6.33318H5.54167V15.0415H3.95833C3.32844 15.0415 2.72435 14.7913 2.27896 14.3459C1.83356 13.9005 1.58333 13.2964 1.58333 12.6665ZM17.3937 9.03989L16.8348 12.9982C16.7531 13.5635 16.4712 14.0806 16.0404 14.4556C15.6097 14.8306 15.0586 15.0385 14.4875 15.0415H7.125V6.1226C7.19961 6.0576 7.26137 5.97919 7.30708 5.89143L9.04004 2.38039C9.10503 2.26317 9.19691 2.16304 9.30812 2.08824C9.41934 2.01343 9.54672 1.96609 9.67979 1.95009C9.81287 1.93409 9.94784 1.9499 10.0736 1.99622C10.1994 2.04254 10.3124 2.11804 10.4033 2.21652C10.4811 2.30696 10.5379 2.41346 10.5698 2.52841C10.6017 2.64336 10.6078 2.76393 10.5878 2.88152L10.1698 5.41485C10.1514 5.52804 10.1579 5.64387 10.1887 5.75432C10.2195 5.86477 10.274 5.96721 10.3483 6.05454C10.4226 6.14188 10.515 6.21203 10.6191 6.26014C10.7232 6.30825 10.8365 6.33317 10.9511 6.33318H15.0417C15.3816 6.33314 15.7176 6.40607 16.0269 6.54705C16.3363 6.68803 16.6117 6.89377 16.8347 7.15037C17.0577 7.40697 17.223 7.70845 17.3194 8.03442C17.4159 8.3604 17.4412 8.70328 17.3937 9.03989Z" fill="#0041F2"/>
</svg>
