<svg width="18" height="20" viewBox="0 0 18 20" fill="none" xmlns="http://www.w3.org/2000/svg">
<path d="M8.77344 6.16406C5.21875 6.16406 2.32812 9.05469 2.32812 12.6094C2.32812 16.1641 5.17969 19.0937 8.77344 19.0937C12.3281 19.0937 15.2188 16.2031 15.2188 12.6484C15.2188 9.09375 12.3281 6.16406 8.77344 6.16406ZM8.77344 17.5312C6.07812 17.5312 3.89062 15.3438 3.89062 12.6484C3.89062 9.95312 6.07812 7.76563 8.77344 7.76563C11.4688 7.76563 13.6562 9.95312 13.6562 12.6484C13.6562 15.3438 11.4688 17.5312 8.77344 17.5312Z" fill="#0041F2"/>
<path d="M5.72859 14.6797C5.57234 15.0703 5.88484 15.5391 6.27547 15.6563C6.47078 15.6953 6.70515 15.6562 6.8614 15.5781C7.1739 15.3828 7.25203 14.9922 7.52547 14.7969C7.87703 14.5234 8.38484 14.4062 8.81453 14.4453C9.16609 14.4844 9.55672 14.6016 9.83015 14.7969C10.1427 14.9922 10.2989 15.3438 10.6114 15.5391C10.8067 15.6563 11.002 15.6953 11.1973 15.6172C11.5489 15.5 11.9005 15.0703 11.7442 14.6406C10.8458 12.2969 6.66609 12.2578 5.72859 14.6797Z" fill="#0041F2"/>
<path d="M8.77344 5.26563C9.20312 5.26563 9.55469 4.91406 9.55469 4.48438C9.55469 3.58594 9.55469 2.6875 9.55469 1.78906C9.55469 1.67188 9.55469 1.55469 9.55469 1.39844C9.55469 1.00781 9.20312 0.617188 8.77344 0.617188C8.34375 0.617188 7.99219 0.96875 7.99219 1.39844C7.99219 2.29688 7.99219 3.19531 7.99219 4.09375C7.99219 4.21094 7.99219 4.32813 7.99219 4.48438C7.99219 4.91406 8.34375 5.30469 8.77344 5.26563Z" fill="#0041F2"/>
<path d="M3.61841 7.53149C3.89185 7.21899 3.93091 6.75024 3.61841 6.43774C2.99341 5.81274 2.36841 5.18774 1.74341 4.56274C1.66528 4.48462 1.5481 4.36743 1.46997 4.28931C1.19653 4.01587 0.649658 3.97681 0.37622 4.28931C0.102783 4.60181 0.0637202 5.07056 0.37622 5.38306C1.00122 6.00806 1.62622 6.63306 2.25122 7.25806C2.32935 7.33618 2.44653 7.45337 2.52466 7.53149C2.83716 7.80493 3.34497 7.80493 3.61841 7.53149Z" fill="#0041F2"/>
<path d="M17.3684 4.25024C17.0559 3.97681 16.5872 3.93774 16.2747 4.25024C15.6497 4.87524 15.0247 5.50024 14.3997 6.12524C14.3215 6.20337 14.2043 6.32056 14.1262 6.39868C13.8528 6.67212 13.8137 7.21899 14.1262 7.49243C14.4387 7.76587 14.9075 7.80493 15.22 7.49243C15.845 6.86743 16.47 6.24243 17.095 5.61743C17.1731 5.53931 17.2903 5.42212 17.3684 5.34399C17.6809 5.07056 17.6809 4.52368 17.3684 4.25024Z" fill="#0041F2"/>
</svg>
