<svg width="25" height="25" viewBox="0 0 25 25" fill="none" xmlns="http://www.w3.org/2000/svg">
<path d="M12.7734 8.16406C9.21875 8.16406 6.32812 11.0547 6.32812 14.6094C6.32812 18.1641 9.17969 21.0937 12.7734 21.0937C16.3281 21.0937 19.2188 18.2031 19.2188 14.6484C19.2188 11.0938 16.3281 8.16406 12.7734 8.16406ZM12.7734 19.5312C10.0781 19.5312 7.89062 17.3438 7.89062 14.6484C7.89062 11.9531 10.0781 9.76563 12.7734 9.76563C15.4688 9.76563 17.6562 11.9531 17.6562 14.6484C17.6562 17.3438 15.4688 19.5312 12.7734 19.5312Z" fill="#0041F2"/>
<path d="M9.72859 16.6797C9.57234 17.0703 9.88484 17.5391 10.2755 17.6563C10.4708 17.6953 10.7052 17.6562 10.8614 17.5781C11.1739 17.3828 11.252 16.9922 11.5255 16.7969C11.877 16.5234 12.3848 16.4062 12.8145 16.4453C13.1661 16.4844 13.5567 16.6016 13.8302 16.7969C14.1427 16.9922 14.2989 17.3438 14.6114 17.5391C14.8067 17.6563 15.002 17.6953 15.1973 17.6172C15.5489 17.5 15.9005 17.0703 15.7442 16.6406C14.8458 14.2969 10.6661 14.2578 9.72859 16.6797Z" fill="#0041F2"/>
<path d="M12.7734 7.26563C13.2031 7.26563 13.5547 6.91406 13.5547 6.48438C13.5547 5.58594 13.5547 4.6875 13.5547 3.78906C13.5547 3.67188 13.5547 3.55469 13.5547 3.39844C13.5547 3.00781 13.2031 2.61719 12.7734 2.61719C12.3438 2.61719 11.9922 2.96875 11.9922 3.39844C11.9922 4.29688 11.9922 5.19531 11.9922 6.09375C11.9922 6.21094 11.9922 6.32813 11.9922 6.48438C11.9922 6.91406 12.3438 7.30469 12.7734 7.26563Z" fill="#0041F2"/>
<path d="M7.61841 9.53149C7.89185 9.21899 7.93091 8.75024 7.61841 8.43774C6.99341 7.81274 6.36841 7.18774 5.74341 6.56274C5.66528 6.48462 5.5481 6.36743 5.46997 6.28931C5.19653 6.01587 4.64966 5.97681 4.37622 6.28931C4.10278 6.60181 4.06372 7.07056 4.37622 7.38306C5.00122 8.00806 5.62622 8.63306 6.25122 9.25806C6.32935 9.33618 6.44653 9.45337 6.52466 9.53149C6.83716 9.80493 7.34497 9.80493 7.61841 9.53149Z" fill="#0041F2"/>
<path d="M21.3684 6.25024C21.0559 5.97681 20.5872 5.93774 20.2747 6.25024C19.6497 6.87524 19.0247 7.50024 18.3997 8.12524C18.3215 8.20337 18.2043 8.32056 18.1262 8.39868C17.8528 8.67212 17.8137 9.21899 18.1262 9.49243C18.4387 9.76587 18.9075 9.80493 19.22 9.49243C19.845 8.86743 20.47 8.24243 21.095 7.61743C21.1731 7.53931 21.2903 7.42212 21.3684 7.34399C21.6809 7.07056 21.6809 6.52368 21.3684 6.25024Z" fill="#0041F2"/>
</svg>
