<svg width="14" height="16" viewBox="0 0 14 16" fill="none" xmlns="http://www.w3.org/2000/svg">
<path d="M7 7.77778C9.14822 7.77778 10.8889 6.03711 10.8889 3.88889C10.8889 1.74067 9.14822 0 7 0C4.85178 0 3.11111 1.74067 3.11111 3.88889C3.11111 6.03633 4.85178 7.77778 7 7.77778ZM7 1.55556C8.28644 1.55556 9.33333 2.60244 9.33333 3.88889C9.33333 5.17533 8.28644 6.22222 7 6.22222C5.71356 6.22222 4.66667 5.17533 4.66667 3.88889C4.66667 2.60244 5.71356 1.55556 7 1.55556ZM9.33333 9.33333H4.66667C2.08989 9.33333 0 11.4224 0 14V15.5556H1.55556V14C1.55556 12.285 2.95089 10.8889 4.66667 10.8889H9.33333C11.0491 10.8889 12.4444 12.285 12.4444 14V15.5556H14V14C14 11.4224 11.9101 9.33333 9.33333 9.33333Z" fill="#0041F2"/>
</svg>
