<svg width="17" height="15" viewBox="0 0 17 15" fill="none" xmlns="http://www.w3.org/2000/svg">
<path d="M8.32073 0.879983L8.39144 0.950694L8.32073 0.879984L0.573455 8.62732C0.139299 9.06145 -0.1 9.6391 -0.1 10.253C-0.1 10.8669 0.139299 11.4446 0.573458 11.8787L2.52057 13.8258C2.62752 13.9328 2.77259 13.9929 2.92387 13.9929H15.5852C15.9002 13.9929 16.1556 13.7375 16.1556 13.4225C16.1556 13.1075 15.9002 12.8521 15.5852 12.8521H10.6708L15.4817 8.04097C15.9158 7.60685 16.1551 7.02919 16.1551 6.41526C16.1551 5.80139 15.9158 5.2237 15.4817 4.78957L11.5721 0.879983C10.6756 -0.0165049 9.21722 -0.0165048 8.32073 0.879983ZM14.6751 7.23434L14.7458 7.30506L14.6751 7.23435L13.7528 8.15666L8.20507 2.6089L9.12739 1.68661C9.57897 1.23506 10.314 1.23506 10.7655 1.68661L14.6751 5.5962C15.1267 6.04779 15.1267 6.78279 14.6751 7.23434ZM1.38002 9.43398L2.93936 7.87465L4.43914 9.37443L4.43918 9.37446L6.98721 11.9225L6.98739 11.9227L6.98749 11.9228L6.98767 11.923L7.91684 12.8521H3.16012L1.38005 11.0721C1.16111 10.8531 1.04076 10.5626 1.04076 10.253C1.04076 9.94346 1.16111 9.65289 1.38002 9.43398ZM3.74602 7.06802L7.39844 3.41553L8.49496 4.51205L4.84254 8.16454L3.74602 7.06802ZM11.043 7.06011L7.39057 10.7126L5.64914 8.97113L9.30159 5.31868L11.043 7.06011ZM8.1972 11.5192L11.8497 7.86674L12.9462 8.9633L11.7479 10.1617L9.29378 12.6157L8.1972 11.5192Z" fill="#0041F2" stroke="#0041F2" stroke-width="0.2"/>
</svg>
