<svg width="38" height="38" viewBox="0 0 38 38" fill="none" xmlns="http://www.w3.org/2000/svg">
<path d="M36.636 7.47599L36.636 7.47598C36.2838 7.24381 35.8388 7.20407 35.4511 7.37019L35.4511 7.37019L20.6854 13.6983L20.6854 13.6983C20.2241 13.8961 19.925 14.3497 19.925 14.8515V29.0588C19.0478 28.6053 18.0238 28.3625 16.9609 28.3625C15.569 28.3625 14.2415 28.7777 13.225 29.5401C12.1287 30.3624 11.4875 31.5416 11.4875 32.7812C11.4875 34.0209 12.1287 35.2 13.225 36.0223C14.2415 36.7847 15.569 37.2 16.9609 37.2C18.3529 37.2 19.6804 36.7847 20.6968 36.0223C21.7932 35.2 22.4344 34.0209 22.4344 32.7812V21.4268L34.6906 16.1741V22.7307C33.8134 22.2772 32.7894 22.0344 31.7266 22.0344C30.3346 22.0344 29.0071 22.4496 27.9907 23.212C26.8943 24.0343 26.2531 25.2135 26.2531 26.4531C26.2531 27.6927 26.8943 28.8719 27.9907 29.6942C29.0071 30.4566 30.3346 30.8719 31.7266 30.8719C33.1185 30.8719 34.446 30.4566 35.4625 29.6942C36.5588 28.8719 37.2 27.6927 37.2 26.4531H37C37.2 26.4531 37.2 26.4531 37.2 26.4529V26.4525V26.4517V26.4506V26.4492V26.4475V26.4455V26.4432V26.4405V26.4376V26.4344V26.4309V26.427V26.4229V26.4185V26.4138V26.4087V26.4034V26.3978V26.3919V26.3858V26.3793V26.3725V26.3655V26.3582V26.3506V26.3427V26.3345V26.3261V26.3173V26.3083V26.299V26.2895V26.2797V26.2696V26.2592V26.2485V26.2376V26.2265V26.215V26.2033V26.1913V26.1791V26.1666V26.1538V26.1408V26.1275V26.114V26.1002V26.0862V26.0719V26.0574V26.0426V26.0275V26.0122V25.9967V25.9809V25.9649V25.9486V25.9321V25.9153V25.8984V25.8811V25.8637V25.846V25.828V25.8099V25.7915V25.7728V25.754V25.7349V25.7156V25.696V25.6763V25.6563V25.6361V25.6156V25.595V25.5741V25.553V25.5317V25.5102V25.4885V25.4665V25.4444V25.422V25.3995V25.3767V25.3537V25.3305V25.3071V25.2835V25.2597V25.2357V25.2115V25.1871V25.1626V25.1378V25.1128V25.0876V25.0623V25.0367V25.011V24.985V24.9589V24.9326V24.9061V24.8795V24.8526V24.8256V24.7984V24.771V24.7434V24.7157V24.6878V24.6597V24.6315V24.603V24.5744V24.5457V24.5167V24.4876V24.4584V24.429V24.3994V24.3696V24.3397V24.3097V24.2794V24.2491V24.2185V24.1878V24.157V24.126V24.0949V24.0636V24.0322V24.0006V23.9689V23.937V23.905V23.8728V23.8405V23.8081V23.7756V23.7428V23.71V23.677V23.6439V23.6107V23.5773V23.5438V23.5102V23.4765V23.4426V23.4086V23.3745V23.3402V23.3059V23.2714V23.2368V23.2021V23.1673V23.1323V23.0973V23.0621V23.0268V22.9914V22.9559V22.9203V22.8846V22.8488V22.8129V22.7769V22.7408V22.7045V22.6682V22.6318V22.5953V22.5587V22.522V22.4852V22.4483V22.4114V22.3743V22.3372V22.2999V22.2626V22.2252V22.1878V22.1502V22.1126V22.0748V22.037V21.9992V21.9612V21.9232V21.8851V21.8469V21.8087V21.7704V21.732V21.6936V21.6551V21.6165V21.5779V21.5392V21.5005V21.4617V21.4228V21.3839V21.3449V21.3059V21.2668V21.2276V21.1884V21.1492V21.1099V21.0706V21.0312V20.9918V20.9523V20.9128V20.8733V20.8337V20.7941V20.7544V20.7147V20.675V20.6352V20.5954V20.5556V20.5158V20.4759V20.436V20.396V20.3561V20.3161V20.2761V20.2361V20.196V20.156V20.1159V20.0758V20.0357V19.9955V19.9554V19.9153V19.8751V19.8349V19.7947V19.7546V19.7144V19.6742V19.634V19.5938V19.5536V19.5134V19.4732V19.433V19.3929V19.3527V19.3125V19.2724V19.2322V19.1921V19.1519V19.1118V19.0717V19.0316V18.9916V18.9515V18.9115V18.8715V18.8315V18.7916V18.7516V18.7117V18.6718V18.632V18.5921V18.5523V18.5126V18.4728V18.4331V18.3935V18.3539V18.3143V18.2747V18.2352V18.1958V18.1563V18.117V18.0776V18.0383V17.9991V17.9599V17.9208V17.8817V17.8426V17.8037V17.7647V17.7259V17.6871V17.6483V17.6096V17.571V17.5324V17.4939V17.4555V17.4171V17.3788V17.3405V17.3024V17.2643V17.2262V17.1883V17.1504V17.1126V17.0749V17.0372V16.9997V16.9622V16.9248V16.8875V16.8502V16.8131V16.776V16.739V16.7022V16.6654V16.6287V16.5921V16.5555V16.5191V16.4828V16.4466V16.4105V16.3744V16.3385V16.3027V16.267V16.2314V16.1959V16.1605V16.1252V16.09V16.0549V16.02V15.9852V15.9504V15.9158V15.8813V15.847V15.8127V15.7786V15.7446V15.7107V15.6769V15.6433V15.6098V15.5764V15.5432V15.5101V15.4771V15.4443V15.4115V15.379V15.3465V15.3142V15.2821V15.2501V15.2182V15.1864V15.1549V15.1234V15.0921V15.061V15.03V14.9991V14.9684V14.9379V14.9075V14.8773V14.8472V14.8173V14.7875V14.7579V14.7285V14.6992V14.6701V14.6412V14.6124V14.5838V14.5553V14.5271V14.499V14.4711V14.4433V14.4157V14.3883V14.3611V14.3341V14.3072V14.2805V14.254V14.2277V14.2016V14.1757V14.1499V14.1243V14.099V14.0738V14.0488V14.024V13.9994V13.975V13.9508V13.9268V13.903V13.8794V13.8559V13.8327V13.8097V13.787V13.7644V13.742V13.7198V13.6979V13.6761V13.6546V13.6333V13.6122V13.5913V13.5706V13.5502V13.53V13.51V13.4902V13.4706V13.4513V13.4322V13.4133V13.3947V13.3763V13.3581V13.3401V13.3224V13.3049V13.2877V13.2707V13.2539V13.2374V13.2211V13.205V13.1892V13.1737V13.1584V13.1433V13.1285V13.114V13.0996V13.0856V13.0718V13.0582V13.0449V13.0319V13.0191V13.0066V12.9944V12.9824V12.9707V12.9592V12.948V12.9371V12.9264V12.916V12.9059V12.896V12.8865V12.8772V12.8681V12.8594V12.8509V12.8427V12.8348V12.8272V12.8199V12.8128V12.806V12.7995V12.7933V12.7874V12.7818V12.7765V12.7714V12.7667V12.7623V12.7581V12.7543V12.7507V12.7475V12.7445V12.7419V12.7395V12.7375V12.7358V12.7343V12.7332V12.7324V12.7319V12.7318V8.52342C37.2 8.10169 36.9881 7.70813 36.636 7.47599ZM16.9609 34.6906C16.1389 34.6906 15.3873 34.4587 14.8467 34.0983C14.3032 33.736 13.9969 33.263 13.9969 32.7812C13.9969 32.2995 14.3032 31.8265 14.8467 31.4642C15.3873 31.1038 16.1389 30.8719 16.9609 30.8719C17.783 30.8719 18.5346 31.1038 19.0752 31.4642C19.6186 31.8265 19.925 32.2995 19.925 32.7812C19.925 33.263 19.6186 33.736 19.0752 34.0983C18.5346 34.4587 17.783 34.6906 16.9609 34.6906ZM34.6906 13.444L22.4344 18.6967V15.6789L34.6906 10.4262V13.444ZM31.7266 28.3625C30.9045 28.3625 30.1529 28.1306 29.6123 27.7702C29.0689 27.4079 28.7625 26.9348 28.7625 26.4531C28.7625 25.9714 29.0689 25.4983 29.6123 25.136C30.1529 24.7756 30.9045 24.5437 31.7266 24.5437C32.5486 24.5437 33.3002 24.7756 33.8408 25.136C34.3843 25.4983 34.6906 25.9714 34.6906 26.4531C34.6906 26.9348 34.3843 27.4079 33.8408 27.7702C33.3002 28.1306 32.5486 28.3625 31.7266 28.3625Z" fill="#EB0D6F" stroke="#EB0D6F" stroke-width="0.4"/>
<path d="M14.8821 14.5551C15.2639 13.9293 15.5656 13.2258 15.5656 12.6014C15.5656 11.5273 15.0109 10.1786 14.1971 8.79561C13.4873 7.58931 12.5946 6.37998 11.7469 5.34043V19.9842C11.7469 21.2238 11.1057 22.403 10.0093 23.2253C8.99288 23.9877 7.66541 24.403 6.27344 24.403C4.88146 24.403 3.55399 23.9877 2.53755 23.2253C1.44118 22.403 0.8 21.2238 0.8 19.9842C0.8 18.7446 1.44118 17.5654 2.53754 16.7431C3.55399 15.9807 4.88146 15.5655 6.27344 15.5655C7.3363 15.5655 8.3603 15.8083 9.2375 16.2618V2.05452C9.2375 0.932025 10.5972 0.3846 11.3797 1.16762C11.4516 1.23959 13.0446 2.83932 14.6601 4.99318L14.5001 5.11318L14.6601 4.99318C16.9058 7.98745 18.0751 10.5511 18.0751 12.6015C18.0751 13.894 17.5098 15.1117 16.9274 16.0263C16.3431 16.944 15.7277 17.5779 15.5982 17.7074C15.5982 17.7074 15.5982 17.7074 15.5981 17.7074M14.8821 14.5551L13.9652 17.5659C14.377 17.9778 15.0449 17.9779 15.4567 17.5659L15.5981 17.7074M14.8821 14.5551C14.5033 15.1757 14.0633 15.6915 13.8234 15.9333C13.3338 16.4234 13.3339 17.2175 13.8238 17.7074M14.8821 14.5551L13.8238 17.7074M15.5981 17.7074C15.1081 18.1974 14.3137 18.1973 13.8238 17.7074M15.5981 17.7074L13.8238 17.7074M6.27344 21.8936C5.45137 21.8936 4.69978 21.6617 4.15917 21.3013C3.61573 20.939 3.30938 20.4659 3.30938 19.9842C3.30938 19.5025 3.61573 19.0294 4.15917 18.6671C4.69978 18.3067 5.45137 18.0748 6.27344 18.0748C7.0955 18.0748 7.8471 18.3067 8.3877 18.6671C8.93114 19.0294 9.2375 19.5025 9.2375 19.9842C9.2375 20.4659 8.93114 20.939 8.3877 21.3013C7.8471 21.6617 7.0955 21.8936 6.27344 21.8936Z" fill="#EB0D6F" stroke="#EB0D6F" stroke-width="0.4"/>
</svg>
