<svg width="22" height="22" viewBox="0 0 22 22" fill="none" xmlns="http://www.w3.org/2000/svg">
<path d="M11 0.6875C7.08763 0.6875 3.90458 3.8705 3.90458 7.78317V12.7042C2.70226 12.9498 1.79492 14.0154 1.79492 15.2889C1.79492 16.7436 2.97841 17.9267 4.43318 17.9267H7.19757C7.41908 19.8298 9.03847 21.3125 11 21.3125C12.9615 21.3125 14.5809 19.8298 14.8024 17.9267H17.5668C19.0215 17.9267 20.205 16.7436 20.205 15.2889C20.205 14.0154 19.2977 12.9498 18.0954 12.7042V7.78318C18.0954 3.8705 14.9123 0.6875 11 0.6875ZM11 19.3165C10.142 19.3165 9.41948 18.724 9.22004 17.9267H12.7799C12.5805 18.724 11.8579 19.3165 11 19.3165ZM18.209 15.2889C18.209 15.6429 17.9209 15.9308 17.5668 15.9308H4.43318C4.07906 15.9308 3.79091 15.6429 3.79091 15.2889C3.79091 14.9347 4.07906 14.6469 4.43318 14.6469H4.9026C5.45389 14.6469 5.90058 14.1999 5.90058 13.6489V7.78317C5.90058 4.97115 8.18829 2.68344 11 2.68344C13.8117 2.68344 16.0994 4.97115 16.0994 7.78317V13.6489C16.0994 14.1999 16.546 14.6469 17.0973 14.6469H17.5668C17.9209 14.6469 18.209 14.9347 18.209 15.2889Z" fill="#00195B"/>
</svg>
