<svg width="18" height="18" viewBox="0 0 18 18" fill="none" xmlns="http://www.w3.org/2000/svg">
<g opacity="0.6" clip-path="url(#clip0_113_5120)">
<path d="M16.6605 0.656619C11.5179 2.26115 6.03138 4.4549 0.513254 6.4901C-0.175457 6.74463 -0.170183 7.67627 0.523801 7.88017C2.12728 8.35092 3.73708 8.84451 5.34724 9.34478C5.45165 9.37713 5.56486 9.36271 5.65696 9.30506C8.2311 7.69385 10.8253 6.03869 13.3428 4.47353C13.4733 4.39232 13.6153 4.57584 13.5021 4.67955C11.4567 6.55689 9.33009 8.50947 7.23513 10.4315C7.10083 10.5545 7.07657 10.757 7.17712 10.9099C8.52677 12.9627 9.87185 15.0257 11.1311 17.0521C11.4511 17.5682 12.208 17.4603 12.4358 16.8731C14.4049 11.7737 16.4784 6.72564 17.9609 1.95283C18.1867 1.22088 17.3914 0.430213 16.6605 0.656619Z" fill="#6D727E"/>
<path d="M5.09766 10.9329C5.11031 12.3599 5.13633 13.7869 5.17535 15.2139C5.19363 15.8235 5.91223 16.1621 6.34395 15.756C6.79535 15.3327 7.25203 14.9056 7.71293 14.476C7.93582 14.2682 7.9766 13.924 7.8075 13.6639C7.16625 12.6774 6.51762 11.6905 5.87039 10.7086C5.63906 10.3578 5.09414 10.5167 5.09801 10.9329H5.09766Z" fill="#6D727E"/>
</g>
<defs>
<clipPath id="clip0_113_5120">
<rect width="18" height="18" fill="white"/>
</clipPath>
</defs>
</svg>
