<svg width="42" height="42" viewBox="0 0 42 42" fill="none" xmlns="http://www.w3.org/2000/svg">
<path d="M21.129 17.0625C20.3501 17.0625 19.5889 17.2934 18.9413 17.7261C18.2938 18.1587 17.7892 18.7737 17.4911 19.4932C17.1932 20.2126 17.1151 21.0043 17.2671 21.7682C17.4191 22.5319 17.794 23.2336 18.3446 23.7842C18.8954 24.3349 19.5969 24.7099 20.3608 24.8619C21.1245 25.0138 21.9162 24.9358 22.6359 24.6377C23.3552 24.3398 23.9703 23.8351 24.4029 23.1875C24.8356 22.5401 25.0665 21.7787 25.0665 21C25.0665 19.9556 24.6516 18.9542 23.9132 18.2158C23.1748 17.4774 22.1732 17.0625 21.129 17.0625ZM21.129 22.9687C20.7396 22.9687 20.3589 22.8532 20.0351 22.6369C19.7113 22.4206 19.4591 22.1131 19.31 21.7534C19.161 21.3936 19.122 20.9978 19.198 20.616C19.274 20.234 19.4614 19.8832 19.7368 19.6078C20.0122 19.3326 20.363 19.145 20.7448 19.069C21.1267 18.9931 21.5226 19.0322 21.8824 19.1811C22.2421 19.3301 22.5496 19.5825 22.7659 19.9062C22.9822 20.23 23.0977 20.6106 23.0977 21C23.0977 21.5221 22.8904 22.023 22.5211 22.3922C22.1518 22.7614 21.6511 22.9687 21.129 22.9687Z" fill="#00195B"/>
<path d="M30.2768 22.8703L29.8397 22.6183C30.0366 21.5477 30.0366 20.4503 29.8397 19.3797L30.2768 19.1277C30.6129 18.9339 30.9075 18.6756 31.1438 18.3678C31.3802 18.0601 31.5536 17.7088 31.6541 17.3341C31.7546 16.9592 31.7804 16.5683 31.7298 16.1837C31.6793 15.7988 31.5536 15.4279 31.3596 15.0918C31.1657 14.7557 30.9075 14.461 30.5998 14.2247C30.292 13.9884 29.9406 13.8151 29.5659 13.7146C29.1912 13.6139 28.8002 13.5882 28.4155 13.6387C28.0308 13.6892 27.6598 13.8151 27.3236 14.009L26.8856 14.262C26.0582 13.5551 25.1075 13.0071 24.0811 12.6456V12.1406C24.0811 11.3574 23.77 10.6063 23.2162 10.0525C22.6624 9.49863 21.9111 9.1875 21.128 9.1875C20.3448 9.1875 19.5937 9.49863 19.0398 10.0525C18.486 10.6063 18.1748 11.3574 18.1748 12.1406V12.6456C17.1485 13.0084 16.1981 13.5577 15.3713 14.266L14.9314 14.0109C14.2526 13.6193 13.446 13.5134 12.6891 13.7164C11.9322 13.9196 11.287 14.4149 10.8954 15.0938C10.5038 15.7726 10.3979 16.5791 10.6009 17.336C10.804 18.0928 11.2994 18.738 11.9782 19.1297L12.4153 19.3817C12.2185 20.4523 12.2185 21.5497 12.4153 22.6203L11.9782 22.8723C11.2994 23.2639 10.804 23.9092 10.6009 24.6659C10.3979 25.4229 10.5038 26.2294 10.8954 26.9082C11.287 27.587 11.9322 28.0824 12.6891 28.2854C13.446 28.4886 14.2526 28.3827 14.9314 27.991L15.3694 27.738C16.197 28.445 17.1481 28.993 18.1748 29.3543V29.8594C18.1748 30.6425 18.486 31.3937 19.0398 31.9476C19.5937 32.5013 20.3448 32.8125 21.128 32.8125C21.9111 32.8125 22.6624 32.5013 23.2162 31.9476C23.77 31.3937 24.0811 30.6425 24.0811 29.8594V29.3543C25.1075 28.9916 26.058 28.4423 26.8846 27.734L27.3247 27.988C28.0035 28.3797 28.81 28.4856 29.567 28.2825C30.3237 28.0795 30.969 27.584 31.3606 26.9052C31.7523 26.2265 31.8582 25.42 31.655 24.6631C31.452 23.9061 30.9566 23.2609 30.2778 22.8693L30.2768 22.8703ZM27.7686 19.1533C28.1019 20.3612 28.1019 21.6368 27.7686 22.8447C27.7104 23.055 27.7237 23.2785 27.8064 23.4805C27.8891 23.6824 28.0364 23.851 28.2253 23.9599L29.2924 24.5762C29.5187 24.7068 29.6838 24.9219 29.7514 25.1741C29.8191 25.4264 29.7838 25.6952 29.6532 25.9213C29.5227 26.1476 29.3076 26.3127 29.0553 26.3803C28.8031 26.4481 28.5343 26.4128 28.308 26.2822L27.239 25.664C27.05 25.5544 26.8297 25.5109 26.6132 25.5403C26.3966 25.5697 26.1961 25.6704 26.043 25.8263C25.1668 26.7208 24.063 27.3591 22.8506 27.6721C22.6391 27.7264 22.4516 27.8498 22.3176 28.0224C22.1839 28.1951 22.1113 28.4075 22.1114 28.6259V29.8594C22.1114 30.1204 22.0076 30.3709 21.8231 30.5554C21.6384 30.7401 21.3881 30.8438 21.1271 30.8438C20.8659 30.8438 20.6156 30.7401 20.4309 30.5554C20.2464 30.3709 20.1427 30.1204 20.1427 29.8594V28.6269C20.1427 28.4084 20.0701 28.1962 19.9364 28.0235C19.8025 27.8507 19.6149 27.7275 19.4033 27.673C18.191 27.3588 17.0874 26.7192 16.212 25.8234C16.059 25.6674 15.8584 25.5668 15.6419 25.5374C15.4253 25.508 15.2051 25.5515 15.0161 25.661L13.949 26.2782C13.8369 26.3438 13.713 26.3868 13.5844 26.4044C13.4558 26.4219 13.325 26.4139 13.1994 26.3807C13.074 26.3475 12.9563 26.2898 12.8531 26.211C12.75 26.1321 12.6635 26.0337 12.5986 25.9212C12.5337 25.8087 12.4917 25.6846 12.4749 25.556C12.4582 25.4272 12.4671 25.2963 12.5011 25.1711C12.5351 25.0458 12.5936 24.9284 12.6731 24.8259C12.7527 24.7233 12.8517 24.6375 12.9646 24.5733L14.0317 23.9571C14.2205 23.848 14.3679 23.6793 14.4506 23.4775C14.5333 23.2756 14.5466 23.052 14.4884 22.8417C14.1551 21.6339 14.1551 20.3583 14.4884 19.1504C14.5455 18.9406 14.5316 18.7178 14.4488 18.5167C14.366 18.3157 14.219 18.1477 14.0306 18.039L12.9636 17.4228C12.7374 17.2922 12.5723 17.0772 12.5046 16.8249C12.4369 16.5727 12.4723 16.3039 12.6028 16.0776C12.7333 15.8515 12.9484 15.6863 13.2006 15.6186C13.4529 15.551 13.7217 15.5863 13.9479 15.7169L15.017 16.3351C15.2056 16.4448 15.4253 16.4888 15.6416 16.4601C15.8579 16.4315 16.0586 16.3317 16.212 16.1766C17.0882 15.2821 18.192 14.644 19.4044 14.3309C19.6166 14.2763 19.8046 14.1524 19.9385 13.9789C20.0725 13.8054 20.1446 13.5923 20.1436 13.3731V12.1406C20.1436 11.8796 20.2473 11.6292 20.432 11.4446C20.6165 11.26 20.8669 11.1562 21.128 11.1562C21.389 11.1562 21.6395 11.26 21.824 11.4446C22.0087 11.6292 22.1123 11.8796 22.1123 12.1406V13.3731C22.1122 13.5916 22.1848 13.8038 22.3187 13.9766C22.4525 14.1493 22.6401 14.2725 22.8517 14.327C24.0644 14.6411 25.1682 15.2806 26.0439 16.1766C26.1971 16.3325 26.3977 16.4332 26.6142 16.4626C26.8308 16.492 27.0509 16.4485 27.24 16.3391L28.3071 15.7218C28.419 15.6562 28.5429 15.6132 28.6716 15.5956C28.8002 15.5781 28.931 15.5861 29.0565 15.6193C29.182 15.6525 29.2997 15.7101 29.4029 15.789C29.5061 15.8679 29.5925 15.9663 29.6574 16.0788C29.7224 16.1913 29.7644 16.3154 29.781 16.444C29.7978 16.5728 29.7889 16.7037 29.7549 16.8289C29.7209 16.9542 29.6624 17.0716 29.5828 17.1741C29.5033 17.2767 29.4043 17.3625 29.2915 17.4267L28.2244 18.0429C28.0364 18.1519 27.8898 18.32 27.8073 18.5211C27.7249 18.722 27.7113 18.9437 27.7686 19.1533Z" fill="#00195B"/>
</svg>
