<svg width="20" height="23" viewBox="0 0 20 23" fill="none" xmlns="http://www.w3.org/2000/svg">
<path d="M9.8972 8.08301C9.17194 8.08301 8.46305 8.298 7.86 8.70096C7.25708 9.10381 6.78714 9.67654 6.50957 10.3466C6.23213 11.0165 6.1594 11.7537 6.30094 12.465C6.44247 13.1763 6.79166 13.8297 7.30438 14.3424C7.81723 14.8552 8.4705 15.2044 9.18184 15.3459C9.89305 15.4874 10.6303 15.4148 11.3004 15.1372C11.9703 14.8597 12.5431 14.3898 12.9459 13.7868C13.3489 13.1838 13.5639 12.4748 13.5639 11.7497C13.5639 10.7772 13.1775 9.8446 12.4899 9.15697C11.8023 8.46935 10.8696 8.08301 9.8972 8.08301ZM9.8972 13.583C9.53457 13.583 9.18013 13.4755 8.8786 13.274C8.57708 13.0726 8.34217 12.7862 8.20333 12.4512C8.0646 12.1162 8.0283 11.7476 8.09907 11.3921C8.16984 11.0364 8.34437 10.7097 8.60079 10.4533C8.85721 10.197 9.18391 10.0223 9.53946 9.95154C9.89513 9.88077 10.2637 9.9172 10.5988 10.0559C10.9338 10.1946 11.2201 10.4297 11.4216 10.7311C11.623 11.0326 11.7305 11.387 11.7305 11.7497C11.7305 12.2359 11.5374 12.7023 11.1936 13.0461C10.8497 13.3899 10.3834 13.583 9.8972 13.583Z" fill="#00195B"/>
<path d="M18.4164 13.4917L18.0094 13.257C18.1928 12.26 18.1928 11.2381 18.0094 10.2412L18.4164 10.0065C18.7295 9.82598 19.0038 9.58544 19.2238 9.29883C19.444 9.01234 19.6054 8.68515 19.699 8.33621C19.7927 7.98714 19.8166 7.62317 19.7696 7.26493C19.7225 6.90658 19.6054 6.56118 19.4248 6.24817C19.2443 5.93516 19.0038 5.66077 18.7172 5.44077C18.4306 5.22064 18.1034 5.05931 17.7545 4.96569C17.4055 4.87194 17.0414 4.84799 16.6832 4.89504C16.325 4.9421 15.9795 5.05931 15.6664 5.23983L15.2586 5.47548C14.4881 4.81719 13.6027 4.3069 12.6469 3.97025V3.5C12.6469 2.77065 12.3573 2.07119 11.8415 1.55546C11.3258 1.03973 10.6262 0.75 9.89695 0.75C9.16765 0.75 8.46817 1.03973 7.95239 1.55546C7.43674 2.07119 7.14695 2.77065 7.14695 3.5V3.97025C6.19117 4.3081 5.30616 4.81963 4.53628 5.47914L4.12659 5.24167C3.49446 4.87696 2.7434 4.77832 2.03855 4.9674C1.33372 5.1566 0.732884 5.61787 0.368209 6.25C0.00353472 6.88213 -0.0951114 7.63319 0.0939908 8.33804C0.283093 9.04278 0.744446 9.64362 1.37654 10.0083L1.78354 10.243C1.60031 11.24 1.60031 12.2619 1.78354 13.2588L1.37654 13.4935C0.744446 13.8582 0.283093 14.4591 0.0939908 15.1638C-0.0951114 15.8686 0.00353472 16.6197 0.368209 17.2518C0.732884 17.884 1.33372 18.3452 2.03855 18.5343C2.7434 18.7235 3.49446 18.6249 4.12659 18.2602L4.53445 18.0245C5.30518 18.6829 6.1908 19.1932 7.14695 19.5297V20C7.14695 20.7293 7.43674 21.4288 7.95239 21.9446C8.46817 22.4602 9.16765 22.75 9.89695 22.75C10.6262 22.75 11.3258 22.4602 11.8415 21.9446C12.3573 21.4288 12.6469 20.7293 12.6469 20V19.5297C13.6027 19.1919 14.4879 18.6804 15.2576 18.0209L15.6674 18.2574C16.2996 18.6221 17.0506 18.7207 17.7555 18.5316C18.4602 18.3425 19.061 17.8812 19.4258 17.249C19.7905 16.617 19.8891 15.866 19.6999 15.1611C19.5108 14.4562 19.0496 13.8554 18.4174 13.4907L18.4164 13.4917ZM16.0808 10.0303C16.3912 11.1551 16.3912 12.343 16.0808 13.4678C16.0266 13.6636 16.039 13.8718 16.116 14.0599C16.193 14.2479 16.3302 14.4049 16.5061 14.5064L17.4998 15.0802C17.7105 15.2018 17.8642 15.4021 17.9272 15.637C17.9903 15.8719 17.9574 16.1223 17.8358 16.3328C17.7143 16.5436 17.514 16.6973 17.279 16.7603C17.0441 16.8233 16.7938 16.7904 16.5831 16.6688L15.5876 16.0932C15.4116 15.9911 15.2065 15.9507 15.0049 15.978C14.8032 16.0054 14.6164 16.0992 14.4739 16.2444C13.658 17.0773 12.6301 17.6717 11.5011 17.9632C11.3041 18.0138 11.1296 18.1287 11.0048 18.2894C10.8802 18.4502 10.8126 18.648 10.8128 18.8514V20C10.8128 20.2431 10.7161 20.4763 10.5442 20.6481C10.3723 20.8201 10.1392 20.9167 9.89609 20.9167C9.65287 20.9167 9.41979 20.8201 9.24782 20.6481C9.07598 20.4763 8.97942 20.2431 8.97942 20V18.8523C8.97942 18.6488 8.91184 18.4512 8.78729 18.2904C8.66262 18.1295 8.48797 18.0147 8.29095 17.964C7.16198 17.6714 6.13434 17.0758 5.31911 16.2417C5.1766 16.0963 4.98985 16.0027 4.78818 15.9753C4.58651 15.948 4.38142 15.9884 4.20542 16.0904L3.21176 16.6652C3.10738 16.7263 2.992 16.7662 2.87223 16.7826C2.75245 16.799 2.63071 16.7915 2.51375 16.7606C2.39693 16.7297 2.28733 16.6759 2.19129 16.6026C2.09526 16.5291 2.0147 16.4375 1.95426 16.3327C1.89381 16.228 1.85468 16.1124 1.83909 15.9926C1.82351 15.8727 1.8318 15.7508 1.86346 15.6342C1.89514 15.5175 1.94958 15.4082 2.02365 15.3128C2.09771 15.2172 2.18994 15.1373 2.29504 15.0775L3.28876 14.5037C3.46464 14.4021 3.60189 14.245 3.67889 14.0571C3.75589 13.8691 3.76824 13.6608 3.71409 13.465C3.40365 12.3403 3.40365 11.1525 3.71409 10.0276C3.76726 9.83221 3.7543 9.6248 3.67718 9.43756C3.60006 9.25031 3.46317 9.09387 3.28778 8.99267L2.29413 8.41883C2.08346 8.29722 1.92972 8.09702 1.86672 7.86211C1.80371 7.6272 1.83661 7.37689 1.95816 7.16618C2.07972 6.95559 2.27998 6.80183 2.51485 6.73877C2.74976 6.67582 3.00007 6.7087 3.21078 6.83031L4.20628 7.40598C4.38191 7.50816 4.58651 7.5491 4.78794 7.52233C4.98936 7.49569 5.17624 7.4028 5.31911 7.25833C6.13507 6.42539 7.16296 5.83114 8.29192 5.53964C8.48956 5.4888 8.66458 5.37342 8.78925 5.21184C8.91404 5.05027 8.98126 4.85178 8.98028 4.64767V3.5C8.98028 3.25689 9.07684 3.02372 9.2488 2.85182C9.42065 2.67991 9.65385 2.58333 9.89695 2.58333C10.14 2.58333 10.3732 2.67991 10.5451 2.85182C10.7171 3.02372 10.8136 3.25689 10.8136 3.5V4.64767C10.8135 4.85117 10.8811 5.0488 11.0057 5.20964C11.1304 5.37049 11.3051 5.48526 11.5021 5.53598C12.6314 5.82846 13.6593 6.42404 14.4748 7.25833C14.6174 7.40353 14.8042 7.49728 15.0058 7.52466C15.2075 7.55203 15.4125 7.51158 15.5886 7.40964L16.5823 6.83483C16.6865 6.77372 16.8019 6.73376 16.9217 6.71738C17.0414 6.701 17.1633 6.70846 17.2801 6.73938C17.397 6.7703 17.5066 6.82396 17.6027 6.89741C17.6988 6.97087 17.7793 7.06253 17.8397 7.16728C17.9002 7.27202 17.9393 7.38764 17.9548 7.50742C17.9705 7.62732 17.9621 7.74918 17.9305 7.86578C17.8988 7.9825 17.8443 8.09177 17.7703 8.18722C17.6962 8.2828 17.604 8.36273 17.4989 8.4225L16.5053 8.99633C16.3302 9.09778 16.1937 9.25434 16.1168 9.44159C16.0401 9.62871 16.0275 9.83514 16.0808 10.0303Z" fill="#00195B"/>
</svg>
