<svg width="22" height="22" viewBox="0 0 22 22" fill="none" xmlns="http://www.w3.org/2000/svg">
<path d="M2.06676 21.1051L2.06679 21.1051L6.00504 19.8369C7.5246 20.6973 9.24218 21.15 11 21.15C16.6096 21.15 21.15 16.6103 21.15 11C21.15 5.39043 16.6103 0.85 11 0.85C5.39043 0.85 0.85 5.38965 0.85 11C0.85 12.7578 1.30272 14.4754 2.1631 15.995L0.894917 19.9332C0.78778 20.2657 0.875822 20.6302 1.12282 20.8772C1.36742 21.1218 1.731 21.2131 2.06676 21.1051ZM6.61343 18.0319L6.6134 18.0319C6.38409 17.8886 6.0993 17.8498 5.83426 17.9352L5.83424 17.9352L3.22433 18.7757L4.06484 16.1658L4.06485 16.1657C4.14889 15.9045 4.11341 15.6194 3.96793 15.3866L3.96792 15.3866C3.14671 14.0731 2.7125 12.5563 2.7125 11C2.7125 6.43044 6.43044 2.7125 11 2.7125C15.5696 2.7125 19.2875 6.43044 19.2875 11C19.2875 15.5696 15.5696 19.2875 11 19.2875C9.44367 19.2875 7.92691 18.8533 6.61343 18.0319ZM11 12.1266C11.6223 12.1266 12.1266 11.6221 12.1266 11C12.1266 10.3778 11.6222 9.87344 11 9.87344C10.3778 9.87344 9.87344 10.3778 9.87344 11C9.87344 11.6221 10.3777 12.1266 11 12.1266ZM14.9062 12.1266C15.5285 12.1266 16.0328 11.6221 16.0328 11C16.0328 10.3778 15.5285 9.87344 14.9062 9.87344C14.284 9.87344 13.7797 10.3778 13.7797 11C13.7797 11.6221 14.284 12.1266 14.9062 12.1266ZM7.09375 12.1266C7.71601 12.1266 8.22031 11.6221 8.22031 11C8.22031 10.3778 7.71599 9.87344 7.09375 9.87344C6.47168 9.87344 5.96719 10.3777 5.96719 11C5.96719 11.6221 6.47166 12.1266 7.09375 12.1266Z" fill="#00195B" stroke="#00195B" stroke-width="0.3"/>
</svg>
