<svg width="98" height="98" viewBox="0 0 98 98" fill="none" xmlns="http://www.w3.org/2000/svg">
<g clip-path="url(#clip0_101_4024)">
<path d="M63.4393 43.5087L63.3673 8.59529C63.3576 3.85588 59.4937 0 54.7541 0H8.61328C3.86392 0 0 3.86392 0 8.61309V43.4481C0 48.1972 3.86392 52.0612 8.61328 52.0612H14.5469V57.8032C14.5469 60.1638 17.2501 61.5178 19.1406 60.1L29.8555 52.064L54.8 52.1394C59.6433 52.1394 63.4491 48.2374 63.4393 43.5087ZM31.582 40.3858C29.9964 40.3858 28.7109 39.1003 28.7109 37.5147C28.7109 35.9291 29.9964 34.6436 31.582 34.6436C33.1676 34.6436 34.4531 35.9291 34.4531 37.5147C34.4531 39.1003 33.1676 40.3858 31.582 40.3858ZM34.6445 28.4091V28.7102C34.6445 30.2958 33.359 31.5813 31.7734 31.5813C30.1878 31.5813 28.9023 30.2958 28.9023 28.7102V26.9188C28.9023 25.0225 30.3117 23.3942 32.1806 23.1311C33.5853 22.9333 34.6445 21.7114 34.6445 20.2883C34.6445 18.196 32.3389 16.402 29.7009 18.09C28.3649 18.9444 26.5896 18.5542 25.7351 17.2187C24.8807 15.8831 25.2708 14.1076 26.6064 13.253C29.5675 11.3588 33.0434 11.1634 35.9053 12.7297C38.6694 14.2431 40.3867 17.1393 40.3867 20.2885C40.3867 23.9748 38.0119 27.2122 34.6445 28.4091Z" fill="#04A1FE" fill-opacity="0.5"/>
<path d="M63.4393 43.5087L63.3673 8.59529C63.3576 3.85588 59.4937 0 54.7541 0H8.61328C3.86392 0 0 3.86392 0 8.61309V43.4481C0 48.1972 3.86392 52.0612 8.61328 52.0612H14.5469V57.8032C14.5469 60.1638 17.2501 61.5178 19.1406 60.1L29.8555 52.064L54.8 52.1394C59.6433 52.1394 63.4491 48.2374 63.4393 43.5087ZM31.582 40.3858C29.9964 40.3858 28.7109 39.1003 28.7109 37.5147C28.7109 35.9291 29.9964 34.6436 31.582 34.6436C33.1676 34.6436 34.4531 35.9291 34.4531 37.5147C34.4531 39.1003 33.1676 40.3858 31.582 40.3858ZM34.6445 28.4091V28.7102C34.6445 30.2958 33.359 31.5813 31.7734 31.5813C30.1878 31.5813 28.9023 30.2958 28.9023 28.7102V26.9188C28.9023 25.0225 30.3117 23.3942 32.1806 23.1311C33.5853 22.9333 34.6445 21.7114 34.6445 20.2883C34.6445 18.196 32.3389 16.402 29.7009 18.09C28.3649 18.9444 26.5896 18.5542 25.7351 17.2187C24.8807 15.8831 25.2708 14.1076 26.6064 13.253C29.5675 11.3588 33.0434 11.1634 35.9053 12.7297C38.6694 14.2431 40.3867 17.1393 40.3867 20.2885C40.3867 23.9748 38.0119 27.2122 34.6445 28.4091Z" fill="url(#paint0_radial_101_4024)" fill-opacity="0.2"/>
<path d="M89.3867 40.3857H69.175L69.1815 43.4969C69.196 50.5858 64.1192 56.3383 57.614 57.6119H83.4531C85.0387 57.6119 86.3242 58.8974 86.3242 60.483C86.3242 62.0686 85.0387 63.3541 83.4531 63.3541H49C47.4144 63.3541 46.1289 62.0686 46.1289 60.483C46.1289 59.3126 46.8304 58.3075 47.8349 57.8606L34.6445 57.8206V83.6424C34.6445 88.3916 38.5084 92.2555 43.2578 92.2555H62.6777L73.5559 97.6945C75.4592 98.6462 77.7109 97.26 77.7109 95.1266V92.2555H89.3867C94.1361 92.2555 98 88.3918 98 83.6424V48.9988C98 44.2495 94.1361 40.3857 89.3867 40.3857ZM83.4531 74.8379H49C47.4144 74.8379 46.1289 73.5524 46.1289 71.9668C46.1289 70.3812 47.4144 69.0957 49 69.0957H83.4531C85.0387 69.0957 86.3242 70.3812 86.3242 71.9668C86.3242 73.5524 85.0387 74.8379 83.4531 74.8379Z" fill="#04A1FE" fill-opacity="0.5"/>
<path d="M89.3867 40.3857H69.175L69.1815 43.4969C69.196 50.5858 64.1192 56.3383 57.614 57.6119H83.4531C85.0387 57.6119 86.3242 58.8974 86.3242 60.483C86.3242 62.0686 85.0387 63.3541 83.4531 63.3541H49C47.4144 63.3541 46.1289 62.0686 46.1289 60.483C46.1289 59.3126 46.8304 58.3075 47.8349 57.8606L34.6445 57.8206V83.6424C34.6445 88.3916 38.5084 92.2555 43.2578 92.2555H62.6777L73.5559 97.6945C75.4592 98.6462 77.7109 97.26 77.7109 95.1266V92.2555H89.3867C94.1361 92.2555 98 88.3918 98 83.6424V48.9988C98 44.2495 94.1361 40.3857 89.3867 40.3857ZM83.4531 74.8379H49C47.4144 74.8379 46.1289 73.5524 46.1289 71.9668C46.1289 70.3812 47.4144 69.0957 49 69.0957H83.4531C85.0387 69.0957 86.3242 70.3812 86.3242 71.9668C86.3242 73.5524 85.0387 74.8379 83.4531 74.8379Z" fill="url(#paint1_radial_101_4024)" fill-opacity="0.2"/>
</g>
<defs>
<radialGradient id="paint0_radial_101_4024" cx="0" cy="0" r="1" gradientUnits="userSpaceOnUse" gradientTransform="translate(57.8314 41.5693) rotate(142.921) scale(35.5853 26.9642)">
<stop stop-color="white"/>
<stop offset="1" stop-color="white" stop-opacity="0"/>
</radialGradient>
<radialGradient id="paint1_radial_101_4024" cx="0" cy="0" r="1" gradientUnits="userSpaceOnUse" gradientTransform="translate(92.3995 79.8563) rotate(144.302) scale(34.9124 26.0618)">
<stop stop-color="white"/>
<stop offset="1" stop-color="white" stop-opacity="0"/>
</radialGradient>
<clipPath id="clip0_101_4024">
<rect width="98" height="98" fill="white"/>
</clipPath>
</defs>
</svg>
