<svg width="16" height="15" viewBox="0 0 16 15" fill="none" xmlns="http://www.w3.org/2000/svg">
<path d="M2.21492 4.90158C0.956708 5.08438 0.454553 6.63157 1.36458 7.5187L1.36458 7.51871L3.53011 9.62957L3.01891 12.6101L3.11747 12.627L3.01891 12.6101C2.80401 13.8632 4.12018 14.8188 5.24516 14.2276L5.24518 14.2276L7.9219 12.8203L10.5987 14.2276L10.6452 14.1391L10.5987 14.2276C11.7221 14.8182 13.0398 13.8631 12.8249 12.6101L12.3137 9.62953L14.4793 7.51867L14.4793 7.51866C15.3895 6.63119 14.8864 5.08434 13.6288 4.90158L10.6361 4.46672L9.29775 1.75491C8.73515 0.614855 7.10838 0.615217 6.54596 1.75488L5.20759 4.46668L2.21492 4.90158ZM2.21492 4.90158L2.2293 5.00054L2.21492 4.90158L2.21492 4.90158ZM11.0468 8.86822L11.0468 8.86821L13.4814 6.4951L13.5512 6.56671L13.4814 6.4951C13.5442 6.43382 13.5102 6.32882 13.4233 6.31614L11.0468 8.86822ZM11.0468 8.86822C10.8783 9.03242 10.8015 9.26899 10.8412 9.50083L11.416 12.8518C11.4308 12.9383 11.3415 13.0032 11.2637 12.9623L8.25442 11.3803L8.20789 11.4688L8.25442 11.3803C8.04624 11.2708 7.79745 11.2708 7.58926 11.3803L7.63579 11.4688L7.58926 11.3803L4.57995 12.9624C4.50217 13.0032 4.41288 12.9383 4.42773 12.8518L5.00245 9.50084L5.00245 9.50083C5.0422 9.26899 4.96535 9.03242 4.79691 8.86822L4.79691 8.86821L2.36231 6.4951L2.36231 6.4951C2.29943 6.43381 2.33345 6.32883 2.42046 6.31614C2.42047 6.31614 2.42048 6.31613 2.42049 6.31613L5.78497 5.82724L5.78498 5.82724C6.01772 5.79341 6.219 5.64726 6.32312 5.4363L6.23344 5.39204L6.32312 5.4363L7.82779 2.38751C7.86667 2.30876 7.97705 2.30876 8.01592 2.38752L8.01592 2.38753L9.5206 5.4363C9.62471 5.64724 9.82598 5.79344 10.0587 5.82724C10.0588 5.82724 10.0588 5.82725 10.0588 5.82725L13.4232 6.31613L11.0468 8.86822Z" fill="#60616B" stroke="#60616B" stroke-width="0.2"/>
</svg>
