<svg width="22" height="24" viewBox="0 0 22 24" fill="none" xmlns="http://www.w3.org/2000/svg">
<path d="M20.2768 13.8703L19.8397 13.6183C20.0366 12.5477 20.0366 11.4503 19.8397 10.3797L20.2768 10.1277C20.6129 9.93386 20.9075 9.67556 21.1438 9.36778C21.3802 9.06013 21.5536 8.70877 21.6541 8.33406C21.7546 7.95921 21.7804 7.56834 21.7298 7.18365C21.6793 6.79883 21.5536 6.42791 21.3596 6.09178C21.1657 5.75565 20.9075 5.46099 20.5998 5.22474C20.292 4.98836 19.9406 4.81511 19.5659 4.71457C19.1912 4.61391 18.8002 4.58818 18.4155 4.63871C18.0308 4.68924 17.6598 4.81511 17.3236 5.00897L16.8856 5.26202C16.0582 4.55511 15.1075 4.00712 14.0811 3.64561V3.14062C14.0811 2.3574 13.77 1.60627 13.2162 1.05245C12.6624 0.498628 11.9111 0.1875 11.128 0.1875C10.3448 0.1875 9.59366 0.498628 9.03978 1.05245C8.48604 1.60627 8.17485 2.3574 8.17485 3.14062V3.64561C7.14847 4.00841 6.19809 4.55773 5.37135 5.26596L4.9314 5.01094C4.25257 4.61929 3.44604 4.51337 2.68912 4.71641C1.93223 4.91959 1.28702 5.41493 0.895406 6.09375C0.503796 6.77257 0.397863 7.57911 0.600933 8.33602C0.804003 9.09281 1.29943 9.73804 1.97822 10.1297L2.41528 10.3817C2.21851 11.4523 2.21851 12.5497 2.41528 13.6203L1.97822 13.8723C1.29943 14.2639 0.804003 14.9092 0.600933 15.6659C0.397863 16.4229 0.503796 17.2294 0.895406 17.9082C1.28702 18.587 1.93223 19.0824 2.68912 19.2854C3.44604 19.4886 4.25257 19.3827 4.9314 18.991L5.36938 18.738C6.19704 19.445 7.14808 19.993 8.17485 20.3543V20.8594C8.17485 21.6425 8.48604 22.3937 9.03978 22.9476C9.59366 23.5013 10.3448 23.8125 11.128 23.8125C11.9111 23.8125 12.6624 23.5013 13.2162 22.9476C13.77 22.3937 14.0811 21.6425 14.0811 20.8594V20.3543C15.1075 19.9916 16.058 19.4423 16.8846 18.734L17.3247 18.988C18.0035 19.3797 18.81 19.4856 19.567 19.2825C20.3237 19.0795 20.969 18.584 21.3606 17.9052C21.7523 17.2265 21.8582 16.42 21.655 15.6631C21.452 14.9061 20.9566 14.2609 20.2778 13.8693L20.2768 13.8703ZM17.7686 10.1533C18.1019 11.3612 18.1019 12.6368 17.7686 13.8447C17.7104 14.055 17.7237 14.2785 17.8064 14.4805C17.8891 14.6824 18.0364 14.851 18.2253 14.9599L19.2924 15.5762C19.5187 15.7068 19.6838 15.9219 19.7514 16.1741C19.8191 16.4264 19.7838 16.6952 19.6532 16.9213C19.5227 17.1476 19.3076 17.3127 19.0553 17.3803C18.8031 17.4481 18.5343 17.4128 18.308 17.2822L17.239 16.664C17.05 16.5544 16.8297 16.5109 16.6132 16.5403C16.3966 16.5697 16.1961 16.6704 16.043 16.8263C15.1668 17.7208 14.063 18.3591 12.8506 18.6721C12.6391 18.7264 12.4516 18.8498 12.3176 19.0224C12.1839 19.1951 12.1113 19.4075 12.1114 19.6259V20.8594C12.1114 21.1204 12.0076 21.3709 11.8231 21.5554C11.6384 21.7401 11.3881 21.8438 11.1271 21.8438C10.8659 21.8438 10.6156 21.7401 10.4309 21.5554C10.2464 21.3709 10.1427 21.1204 10.1427 20.8594V19.6269C10.1427 19.4084 10.0701 19.1962 9.93635 19.0235C9.80248 18.8507 9.61492 18.7275 9.40335 18.673C8.19099 18.3588 7.08744 17.7192 6.212 16.8234C6.05897 16.6674 5.85842 16.5668 5.64185 16.5374C5.42529 16.508 5.20505 16.5515 5.01605 16.661L3.94899 17.2782C3.8369 17.3438 3.713 17.3868 3.58438 17.4044C3.45575 17.4219 3.32503 17.4139 3.19942 17.3807C3.07397 17.3475 2.95628 17.2898 2.85314 17.211C2.75002 17.1321 2.66351 17.0337 2.59861 16.9212C2.53369 16.8087 2.49167 16.6846 2.47493 16.556C2.4582 16.4272 2.4671 16.2963 2.50111 16.1711C2.53513 16.0458 2.59358 15.9284 2.67312 15.8259C2.75266 15.7233 2.8517 15.6375 2.96456 15.5733L4.03168 14.9571C4.22055 14.848 4.36794 14.6793 4.45063 14.4775C4.53332 14.2756 4.54657 14.052 4.48843 13.8417C4.15505 12.6339 4.15505 11.3583 4.48843 10.1504C4.54552 9.94056 4.53161 9.71782 4.44879 9.51675C4.36597 9.31567 4.21897 9.14768 4.03063 9.039L2.96358 8.42278C2.73736 8.29219 2.57226 8.0772 2.5046 7.82494C2.43694 7.57268 2.47227 7.30388 2.6028 7.0776C2.73334 6.85146 2.94839 6.68634 3.2006 6.61862C3.45287 6.55103 3.72167 6.58633 3.94794 6.71693L5.01697 7.33511C5.20558 7.44484 5.42529 7.48881 5.64159 7.46006C5.85789 7.43145 6.05857 7.3317 6.212 7.17656C7.08823 6.28209 8.19204 5.64396 9.4044 5.33093C9.61663 5.27633 9.80458 5.15243 9.93845 4.97891C10.0725 4.8054 10.1446 4.59225 10.1436 4.37306V3.14062C10.1436 2.87956 10.2473 2.62917 10.432 2.44457C10.6165 2.25996 10.8669 2.15625 11.128 2.15625C11.389 2.15625 11.6395 2.25996 11.824 2.44457C12.0087 2.62917 12.1123 2.87956 12.1123 3.14062V4.37306C12.1122 4.59159 12.1848 4.80382 12.3187 4.97655C12.4525 5.14927 12.6401 5.27252 12.8517 5.32699C14.0644 5.64107 15.1682 6.28065 16.0439 7.17656C16.1971 7.33249 16.3977 7.43316 16.6142 7.46256C16.8308 7.49196 17.0509 7.44851 17.24 7.33905L18.3071 6.72178C18.419 6.65616 18.5429 6.61324 18.6716 6.59565C18.8002 6.57806 18.931 6.58607 19.0565 6.61928C19.182 6.65248 19.2997 6.7101 19.4029 6.78898C19.5061 6.86786 19.5925 6.9663 19.6574 7.07878C19.7224 7.19126 19.7644 7.31542 19.781 7.44405C19.7978 7.57281 19.7889 7.70366 19.7549 7.82887C19.7209 7.95422 19.6624 8.07156 19.5828 8.17406C19.5033 8.2767 19.4043 8.36254 19.2915 8.42672L18.2244 9.04294C18.0364 9.15187 17.8898 9.32001 17.8073 9.52108C17.7249 9.72203 17.7113 9.94371 17.7686 10.1533Z" fill="#00195B"/>
</svg>
