<svg width="19" height="21" viewBox="0 0 19 21" fill="none" xmlns="http://www.w3.org/2000/svg">
<path d="M9.01407 10.0156C11.7804 10.0156 14.0219 7.77413 14.0219 5.00781C14.0219 2.2415 11.7804 0 9.01407 0C6.24775 0 4.00625 2.2415 4.00625 5.00781C4.00625 7.77313 6.24775 10.0156 9.01407 10.0156ZM9.01407 2.00313C10.6707 2.00313 12.0188 3.35123 12.0188 5.00781C12.0188 6.6644 10.6707 8.0125 9.01407 8.0125C7.35748 8.0125 6.00938 6.6644 6.00938 5.00781C6.00938 3.35123 7.35748 2.00313 9.01407 2.00313ZM12.0188 12.0188H6.00938C2.6912 12.0188 0 14.709 0 18.0281V20.0313H2.00313V18.0281C2.00313 15.8197 3.79993 14.0219 6.00938 14.0219H12.0188C14.2282 14.0219 16.025 15.8197 16.025 18.0281V20.0313H18.0281V18.0281C18.0281 14.709 15.3369 12.0188 12.0188 12.0188Z" fill="white"/>
</svg>
