<svg width="42" height="28" viewBox="0 0 42 28" fill="none" xmlns="http://www.w3.org/2000/svg">
<path d="M33.4303 9.94181C32.3465 9.94181 31.3094 10.1445 30.354 10.5132C29.6056 8.84997 28.9589 7.09098 28.636 5.45454C28.1173 2.82642 25.7949 0.918945 23.1138 0.918945C22.4342 0.918945 21.8833 1.46987 21.8833 2.14941C21.8833 2.82896 22.4342 3.37988 23.1138 3.37988C23.4066 3.37988 23.6916 3.42073 23.9632 3.49661C24.7887 3.72729 25.4892 4.28559 25.8977 5.03536C25.8646 5.07736 25.8331 5.12091 25.8051 5.16808L25.4229 5.81162L23.4889 9.06744H13.1559L12.5686 7.58915H12.8124C13.4919 7.58915 14.0428 7.03823 14.0428 6.35868C14.0428 5.67914 13.4919 5.12822 12.8124 5.12822H8.56981C7.89026 5.12822 7.33934 5.67914 7.33934 6.35868C7.33934 7.03823 7.89026 7.58915 8.56981 7.58915H9.92053L10.9943 10.2916C10.2252 10.0644 9.41161 9.94173 8.56981 9.94173C3.84439 9.94181 0 13.7862 0 18.5115C0 23.2369 3.84439 27.0813 8.56972 27.0813C12.8773 27.0813 16.4522 23.8865 17.0508 19.742H19.3105C19.7446 19.742 20.1466 19.5132 20.3684 19.14L26.8346 8.25393C27.214 9.4278 27.6887 10.604 28.2005 11.7276C26.1705 13.2962 24.8606 15.7536 24.8606 18.5116C24.8606 23.2369 28.705 27.0813 33.4303 27.0813C38.1556 27.0813 42 23.2369 42 18.5116C42 13.7863 38.1556 9.94181 33.4303 9.94181ZM8.56972 19.742H14.554C13.983 22.5226 11.5168 24.6203 8.56972 24.6203C5.20136 24.6202 2.46094 21.8799 2.46094 18.5115C2.46094 15.1432 5.20136 12.4027 8.56972 12.4027C11.5168 12.4027 13.983 14.5005 14.554 17.2811H8.56972C7.89018 17.2811 7.33925 17.832 7.33925 18.5115C7.33925 19.1911 7.89018 19.742 8.56972 19.742ZM18.6102 17.2811H17.0508C16.7652 15.3042 15.8026 13.5436 14.406 12.2426C14.3932 12.1932 14.3784 12.144 14.359 12.0954L14.1337 11.5285H22.0272L18.6102 17.2811ZM33.4303 24.6202C30.0618 24.6202 27.3215 21.8798 27.3215 18.5114C27.3215 16.727 28.0908 15.119 29.3149 14.0011C30.8282 16.8932 32.3064 19.0492 32.4176 19.2104C32.6564 19.5564 33.0405 19.742 33.4313 19.742C33.6724 19.742 33.9159 19.6713 34.1293 19.524C34.6886 19.138 34.829 18.3717 34.443 17.8124C34.4165 17.774 32.9274 15.6025 31.4363 12.7385C32.0617 12.5219 32.7322 12.4026 33.4303 12.4026C36.7986 12.4026 39.5391 15.143 39.5391 18.5114C39.5391 21.8797 36.7986 24.6202 33.4303 24.6202Z" fill="#EB0D6F"/>
</svg>
